<?xml version="1.0" encoding="utf-8"?>
<!-- Generator: Adobe Illustrator 18.1.1, SVG Export Plug-In . SVG Version: 6.00 Build 0)  -->
<!DOCTYPE svg PUBLIC "-//W3C//DTD SVG 1.1//EN" "http://www.w3.org/Graphics/SVG/1.1/DTD/svg11.dtd">
<svg version="1.1" id="Layer_1" xmlns="http://www.w3.org/2000/svg" xmlns:xlink="http://www.w3.org/1999/xlink" x="0px" y="0px"
	 viewBox="537.3 323 126 126" enable-background="new 537.3 323 126 126" xml:space="preserve">
<circle fill="none" stroke="#F07E2F" stroke-miterlimit="10" cx="600.3" cy="385.9" r="60.4"/>
<g id="ey0yTC.tif">
	<g>
		<path fill="#F07E2F" d="M604.4,350.9c1.7,0.4,6.3,2.7,8.4,5.6c0.6,0.9,1.4,0.6,2.3,0.5c10.1-1.7,16.9,5.3,17.9,14
			c0.2,1.5,0.6,2.6,1.8,3.7c2.1,1.9,2.9,2.5,3.8,5.1c0.5,2.1,1.1,5.6,0.2,7.6c-2.2,5.2-5.3,10.4-13,11.2c-3.4,0.4-30.8,0-48,0
			c-9.7-1.2-13.6-5.9-14.8-11.7c-0.6-2.4-0.3-4.3,0-6.6c0.4-2.9,1.2-3.9,1.9-5.2c2.2-4.1,5.5-5.5,10.1-6.4c0.6-0.1,1.3,0,1.9-0.6
			c2.2-2.3,4.7-4,8-4.2c0.8,0,0.9-0.6,1.1-1.2c1.6-5.8,5.8-9,11.2-11.3C599.8,350.3,603.2,350.6,604.4,350.9z M600.7,396.7
			c9,0,16.5,0,23.9,0c5.6,0,10.3-3.2,12.2-8.3c1.9-5.2,0.6-9.8-3.4-13.5c-1.2-1.1-1.5-2.3-1.6-3.7c-1-7-7.6-14.2-16.4-12.5
			c-1.5,0.3-3.3-0.4-4.2-1.5c-3.5-4.2-8.9-6-12.8-4.7c-6.2,2-7.2,3.6-10.2,9.1c-1.1,1.9-0.8,3.9-4.2,3.7c-3-0.2-4.4,3.4-6.8,4.6
			c-2.6,1.2-6.1,0.9-8.3,3.1c-4.1,4.1-5.7,9-4,14.5c1.8,5.8,6.4,8.3,12,8.9C585.3,397.2,593.8,396.5,600.7,396.7z"/>
	</g>
</g>
<rect x="611.1" y="386.1" fill="#EE7C2C" width="3" height="4.2"/>
<rect x="611.2" y="392.5" fill="#EE7C2C" width="3" height="4.2"/>
<rect x="600.7" y="386.1" fill="#EE7C2C" width="3" height="4.2"/>
<rect x="600.8" y="392.5" fill="#EE7C2C" width="3" height="4.2"/>
<path fill="#EE7C2C" d="M630.6,393.6h4.3c0.4-0.4,0.8-0.8,1.1-1.3h-5.5V393.6z"/>
<path fill="#EE7C2C" d="M637.7,389h-7.1v1.3h6.7c0.1-0.2,0.2-0.4,0.3-0.7C637.6,389.4,637.6,389.2,637.7,389z"/>
<path fill="#EE7C2C" d="M637.4,379.6c-0.4-0.9-0.9-1.7-1.4-2.6c0.7,1.9,1.2,3.9,1.5,6c0-0.2,0-0.3-0.1-0.5h-4.3c0.3-1.1,1.6-2,3-2
	c0.3,0,0.6,0,0.9,0.1c-0.1-0.4-0.2-0.9-0.3-1.3c-0.2,0-0.4,0-0.6,0c-2.2,0-4,1.4-4.3,3.2h-1.2v3.1h-1.6v-16.5H627v-2.2h-12.4v2.2
	h-2.3v10.2h-7.5v-2h2.2v-4.2h2.3L602,369l-7.3,4.2h2.3v4.2h2.2v2h-4.4v4.3h2.2v2.4h-9.1v-11.4h-1.3v11.4h-3.6V397
	c0.4,0,0.8-0.1,1.3-0.1v-3.1h2.4v3.1c0.4,0,0.8,0,1.3,0v-3.1h2.2v3.3c0.4,0,0.8,0.1,1.3,0.1v-3.3h2.3v3.5c0.4,0,0.8,0.1,1.3,0.1
	v-3.6h2.1v3.8c0.4,0,0.8,0.1,1.2,0.1c0,0,0.1,0,0.1,0v-14h18.6v13.8c0.4,0,0.8-0.1,1.3-0.1v-0.9l5.7-2.8l5.7,2.8v0.3
	c0.8-0.4,1.7-0.7,2.5-1.2h-1.3v0l-1.5-0.7V387h8.6c0,0,0-0.1,0-0.1c0-0.4,0-0.8,0-1.1h-5.8v-1.8h5.7c0.1,1,0.1,1.9,0.1,2.9
	c0,0.9,0,1.8-0.1,2.7C638.9,386.4,638.8,382.8,637.4,379.6z M604.8,373.2h0.9v2.9h-0.9V373.2z M586.6,392.5h-2.4v-5.1h2.4V392.5z
	 M590.1,392.5h-2.2v-5.1h2.2V392.5z M593.6,392.5h-2.3v-5.1h2.3V392.5z M596.9,392.5h-2.1v-5.1h2.1V392.5z M615.9,370.5h1v8.9h-1
	V370.5z M613.6,370.4h1.1v9h-1.1V370.4z M602,370.5l2.6,1.5h-5.1L602,370.5z M603.6,377.4v2h-3.2v-2H603.6z M600.4,376.2v-2.9h1v2.9
	H600.4z M602.6,376.2v-2.9h1v2.9H602.6z M598.2,376.2v-2.9h0.9v2.9H598.2z M619,394.6l-1,0.5v-11.4h1V394.6z M619,382.4H596v-1.8
	H619V382.4z M619,379.4h-1v-8.9h1V379.4z M621.3,393.5l-1,0.5v-23.5h1V393.5z M623.5,392.4l-1,0.5v-22.3h1V392.4z M625.7,393.2
	l-1-0.5v-22.3h1V393.2z M625.7,369.2h-9.9v-1h9.9V369.2z M627.9,394.3l-0.9-0.4v-23.4h0.9V394.3z"/>
<rect x="605.9" y="386.1" fill="#EE7C2C" width="3" height="4.2"/>
<rect x="606" y="392.5" fill="#EE7C2C" width="3" height="4.2"/>
<polygon fill="none" stroke="#EE7C2C" stroke-width="2" stroke-miterlimit="10" points="592.4,412.3 601.1,403.6 609.8,412.3 
	604.9,412.3 604.9,423.2 597.3,423.2 597.3,412.3 "/>
</svg>
