<?xml version="1.0" encoding="utf-8"?>
<!-- Generator: Adobe Illustrator 18.1.1, SVG Export Plug-In . SVG Version: 6.00 Build 0)  -->
<!DOCTYPE svg PUBLIC "-//W3C//DTD SVG 1.1//EN" "http://www.w3.org/Graphics/SVG/1.1/DTD/svg11.dtd">
<svg version="1.1" id="Layer_1" xmlns="http://www.w3.org/2000/svg" xmlns:xlink="http://www.w3.org/1999/xlink" x="0px" y="0px"
	 viewBox="537.3 323 126 126" enable-background="new 537.3 323 126 126" xml:space="preserve">
<circle fill="none" stroke="#F07E2F" stroke-miterlimit="10" cx="600.3" cy="386" r="60.8"/>
<g id="_x38_yb99e.tif_3_">
	<g>
		<path fill="none" stroke="#EB7C28" stroke-linecap="round" stroke-linejoin="round" stroke-miterlimit="10" d="M578.2,380.7
			c-0.5-2.1-1.3-4.2-2.2-6c-0.6-1.4-1.6-2.9-2.3-4.3c-0.9-1.3-1.7-2.7-2.6-4c-0.5-0.9-1-1.8-1.6-2.7c-0.4-0.8-0.8-1.6-1-2.5
			c-0.1-0.6-0.3-1.2-0.3-1.8c-0.1-1.4,0.1-2.7,0.6-4c0.3-0.9,0.8-1.7,1.3-2.5c0.9-1.2,2.1-2.2,3.4-2.9c0.9-0.5,1.9-0.8,3-1
			c0.8-0.1,1.6-0.1,2.3-0.1c0.9,0,1.9,0.3,2.9,0.5c1.4,0.5,2.6,1.2,3.8,2.2c1.3,1.2,2.2,2.6,2.7,4.3c0.3,0.6,0.4,1.3,0.4,1.9
			c0.1,0.6,0.1,1.3,0,2.1c-0.1,1-0.4,2.1-0.9,3.1c-0.4,0.9-0.9,1.8-1.4,2.6c-0.5,0.9-1,1.8-1.7,2.6c-1,1.6-2.1,3.2-3,4.9
			C580.5,375,578.3,379.9,578.2,380.7C578.2,380.5,578.2,380.7,578.2,380.7z M578.2,354.1c-1.9,0-3.6,1.6-3.8,3.6
			c0,2.1,1.7,3.6,3.6,3.8c1.9,0,3.6-1.6,3.8-3.6C581.9,355.8,580.2,354.1,578.2,354.1z"/>
		<path fill="none" stroke="#EB7C28" stroke-linecap="round" stroke-linejoin="round" stroke-miterlimit="10" d="M578.2,354.1
			c2.1,0,3.8,1.7,3.6,3.8c0,2.1-1.7,3.6-3.8,3.6c-1.9,0-3.6-1.6-3.6-3.8C574.5,355.6,576.2,354.1,578.2,354.1z"/>
	</g>
</g>
<g id="_x38_yb99e.tif_2_">
	<g>
		<path fill="none" stroke="#EB7C28" stroke-linecap="round" stroke-linejoin="round" stroke-miterlimit="10" d="M591.7,405.9
			c-0.5-2.1-1.3-4.2-2.2-6c-0.6-1.4-1.6-2.9-2.3-4.3c-0.9-1.3-1.7-2.7-2.6-4c-0.5-0.9-1-1.8-1.6-2.7c-0.4-0.8-0.8-1.6-1-2.5
			c-0.1-0.6-0.3-1.2-0.3-1.8c-0.1-1.4,0.1-2.7,0.6-4c0.3-0.9,0.8-1.7,1.3-2.5c0.9-1.2,2.1-2.2,3.4-2.9c0.9-0.5,1.9-0.8,3-1
			c0.8-0.1,1.6-0.1,2.3-0.1c0.9,0,1.9,0.3,2.9,0.5c1.4,0.5,2.6,1.2,3.8,2.2c1.3,1.2,2.2,2.6,2.7,4.3c0.3,0.6,0.4,1.3,0.4,1.9
			c0.1,0.6,0.1,1.3,0,2.1c-0.1,1-0.4,2.1-0.9,3.1c-0.4,0.9-0.9,1.8-1.4,2.6c-0.5,0.9-1,1.8-1.7,2.6c-1,1.6-2.1,3.2-3,4.9
			C594,400.1,591.9,405.1,591.7,405.9L591.7,405.9z M591.8,379.3c-1.9,0-3.6,1.6-3.8,3.6c0,2.1,1.7,3.6,3.6,3.8
			c1.9,0,3.6-1.6,3.8-3.6C595.4,380.9,593.8,379.3,591.8,379.3z"/>
		<path fill="none" stroke="#EB7C28" stroke-linecap="round" stroke-linejoin="round" stroke-miterlimit="10" d="M591.8,379.3
			c2.1,0,3.8,1.7,3.6,3.8c0,2.1-1.7,3.6-3.8,3.6c-1.9,0-3.6-1.6-3.6-3.8C588,380.8,589.7,379.3,591.8,379.3z"/>
	</g>
</g>
<g id="_x38_yb99e.tif_1_">
	<g>
		<path fill="none" stroke="#EB7C28" stroke-linecap="round" stroke-linejoin="round" stroke-miterlimit="10" d="M630.1,392.1
			c-0.5-2.1-1.3-4.2-2.2-6c-0.6-1.4-1.6-2.9-2.3-4.3c-0.9-1.3-1.7-2.7-2.6-4c-0.5-0.9-1-1.8-1.6-2.7c-0.4-0.8-0.8-1.6-1-2.5
			c-0.1-0.6-0.3-1.2-0.3-1.8c-0.1-1.4,0.1-2.7,0.6-4c0.3-0.9,0.8-1.7,1.3-2.5c0.9-1.2,2.1-2.2,3.4-2.9c0.9-0.5,1.9-0.8,3-1
			c0.8-0.1,1.6-0.1,2.3-0.1c0.9,0,1.9,0.3,2.9,0.5c1.4,0.5,2.6,1.2,3.8,2.2c1.3,1.2,2.2,2.6,2.7,4.3c0.3,0.6,0.4,1.3,0.4,1.9
			c0.1,0.6,0.1,1.3,0,2.1c-0.1,1-0.4,2.1-0.9,3.1c-0.4,0.9-0.9,1.8-1.4,2.6c-0.5,0.9-1,1.8-1.7,2.6c-1,1.6-2.1,3.2-3,4.9
			C632.4,386.4,630.3,391.3,630.1,392.1L630.1,392.1z M630.2,365.6c-1.9,0-3.6,1.6-3.8,3.6c0,2.1,1.7,3.6,3.6,3.8
			c1.9,0,3.6-1.6,3.8-3.6C633.9,367.2,632.2,365.6,630.2,365.6z"/>
		<path fill="none" stroke="#EB7C28" stroke-linecap="round" stroke-linejoin="round" stroke-miterlimit="10" d="M630.2,365.6
			c2.1,0,3.8,1.7,3.6,3.8c0,2.1-1.7,3.6-3.8,3.6c-1.9,0-3.6-1.6-3.6-3.8C626.5,367.2,628.1,365.6,630.2,365.6z"/>
	</g>
</g>
<g id="_x38_yb99e.tif_5_">
	<g>
		<path fill="none" stroke="#EB7C28" stroke-linecap="round" stroke-linejoin="round" stroke-miterlimit="10" d="M607.9,372.5
			c-0.7,1.6-1.4,3.3-1.5,3.7l0,0c-0.5-1.9-1.2-3.8-2-5.4c-0.6-1.3-1.4-2.6-2.1-3.9c-0.8-1.2-1.5-2.5-2.4-3.6
			c-0.5-0.8-0.9-1.6-1.4-2.5c-0.4-0.7-0.7-1.4-0.9-2.2c-0.1-0.6-0.2-1.1-0.2-1.6c-0.1-1.3,0.1-2.5,0.6-3.6c0.2-0.8,0.7-1.5,1.2-2.2
			c0.8-1.1,1.9-2,3.1-2.6c0.8-0.5,1.8-0.7,2.7-0.9c0.7-0.1,1.4-0.1,2.1-0.1c0.8,0,1.8,0.2,2.6,0.5c1.3,0.5,2.4,1.1,3.4,2
			c1.2,1.1,2,2.4,2.5,3.9c0.2,0.6,0.4,1.2,0.4,1.8c0.1,0.6,0.1,1.2,0,1.9c-0.1,0.9-0.4,1.9-0.8,2.8c-0.4,0.8-0.8,1.6-1.3,2.4
			c-0.5,0.8-0.9,1.6-1.5,2.4c-0.9,1.4-1.9,2.9-2.7,4.5C609.1,370.1,608.5,371.3,607.9,372.5 M606.5,352.2c-1.8,0-3.3,1.4-3.4,3.3
			c0,1.9,1.5,3.3,3.3,3.4c1.8,0,3.3-1.4,3.4-3.3C609.8,353.6,608.3,352.2,606.5,352.2z"/>
		<path fill="none" stroke="#EB7C28" stroke-linecap="round" stroke-linejoin="round" stroke-miterlimit="10" d="M606.5,352.2
			c1.9,0,3.4,1.5,3.3,3.4c0,1.9-1.5,3.3-3.4,3.3c-1.8,0-3.3-1.4-3.3-3.4C603.1,353.6,604.7,352.2,606.5,352.2z"/>
	</g>
</g>
<g id="_x38_yb99e.tif_4_">
	<g>
		<path fill="none" stroke="#EB7C28" stroke-linecap="round" stroke-linejoin="round" stroke-miterlimit="10" d="M615.2,418.3
			c-0.6-2.2-1.4-4.5-2.4-6.4c-0.7-1.5-1.7-3.1-2.5-4.6c-1-1.4-1.8-2.9-2.8-4.3c-0.6-1-1.1-2-1.7-2.9c-0.4-0.8-0.8-1.7-1.1-2.6
			c-0.1-0.7-0.3-1.3-0.3-2c-0.1-1.5,0.1-2.9,0.7-4.3c0.3-1,0.8-1.8,1.4-2.6c1-1.3,2.2-2.4,3.6-3.1c1-0.6,2.1-0.8,3.2-1.1
			c0.8-0.1,1.7-0.1,2.5-0.1c1,0,2.1,0.3,3.1,0.6c1.5,0.6,2.8,1.3,4,2.4c1.4,1.3,2.4,2.8,2.9,4.6c0.3,0.7,0.4,1.4,0.4,2.1
			c0.1,0.7,0.1,1.4,0,2.2c-0.1,1.1-0.4,2.2-1,3.3c-0.4,1-1,2-1.5,2.8c-0.6,1-1.1,2-1.8,2.8c-1.1,1.7-2.2,3.5-3.2,5.3
			C617.7,412.2,615.5,417.5,615.2,418.3L615.2,418.3z M615.3,389.9c-2.1,0-3.9,1.7-4,3.9c0,2.2,1.8,3.9,3.9,4c2.1,0,3.9-1.7,4-3.9
			C619.2,391.6,617.4,389.9,615.3,389.9z"/>
		<path fill="none" stroke="#EB7C28" stroke-linecap="round" stroke-linejoin="round" stroke-miterlimit="10" d="M615.3,389.9
			c2.2,0,4,1.8,3.9,4c0,2.2-1.8,3.9-4,3.9c-2.1,0-3.9-1.7-3.9-4C611.3,391.6,613.1,389.9,615.3,389.9z"/>
	</g>
</g>
<polyline fill="none" stroke="#EB7C28" stroke-width="2" stroke-linecap="round" stroke-miterlimit="10" points="636.4,380.9 
	643.8,383 640.2,403.7 627.9,422.2 581.8,424.6 578.2,403.7 557.4,390 563.2,380.7 575.2,374.9 "/>
<line fill="none" stroke="#EB7C28" stroke-width="2" stroke-linecap="round" stroke-miterlimit="10" x1="608.9" y1="373.5" x2="621.6" y2="376.6"/>
<path fill="none" stroke="#EB7C28" stroke-width="2" stroke-linecap="round" stroke-miterlimit="10" d="M608.5,373"/>
<path fill="none" stroke="#EB7C28" stroke-width="2" stroke-linecap="round" stroke-miterlimit="10" d="M604.8,371.8"/>
<polyline fill="none" stroke="#EB7C28" stroke-width="2" stroke-linecap="round" stroke-miterlimit="10" points="584.4,369.9 
	590.2,367.7 603.9,371.8 "/>
<polygon fill="#EB7C28" points="585.3,370.6 582.5,371.6 583.7,370.2 "/>
<polygon fill="#EB7C28" points="622.5,377.9 620.4,377.3 622,376.9 "/>
<polygon fill="#EB7C28" points="602.6,372.5 605.2,373.3 604.6,371.6 602.6,371.2 "/>
<polygon fill="#EB7C28" points="609.2,374.6 607.5,374.2 608.3,372.4 609.7,372.7 "/>
</svg>
