<?xml version="1.0" encoding="utf-8"?>
<!-- Generator: Adobe Illustrator 18.1.1, SVG Export Plug-In . SVG Version: 6.00 Build 0)  -->
<!DOCTYPE svg PUBLIC "-//W3C//DTD SVG 1.1//EN" "http://www.w3.org/Graphics/SVG/1.1/DTD/svg11.dtd">
<svg version="1.1" id="Layer_1" xmlns="http://www.w3.org/2000/svg" xmlns:xlink="http://www.w3.org/1999/xlink" x="0px" y="0px"
	 viewBox="537.3 323 126 126" enable-background="new 537.3 323 126 126" xml:space="preserve">
<circle fill="none" stroke="#F07E2F" stroke-miterlimit="10" cx="600.3" cy="386" r="60.8"/>
<path fill="none" stroke="#EB7C28" stroke-linecap="round" stroke-miterlimit="10" d="M668.6,369.9"/>
<g id="_x38_yb99e.tif_11_">
	<g>
		<path fill="none" stroke="#EB7C28" stroke-linecap="round" stroke-linejoin="round" stroke-miterlimit="10" d="M574.4,380.7
			c-0.5-2.1-1.3-4.2-2.2-6c-0.6-1.4-1.6-2.9-2.3-4.3c-0.9-1.3-1.7-2.7-2.6-4c-0.5-0.9-1-1.8-1.6-2.7c-0.4-0.8-0.8-1.6-1-2.5
			c-0.1-0.6-0.3-1.2-0.3-1.8c-0.1-1.4,0.1-2.7,0.6-4c0.3-0.9,0.8-1.7,1.3-2.5c0.9-1.2,2.1-2.2,3.4-2.9c0.9-0.5,1.9-0.8,3-1
			c0.8-0.1,1.6-0.1,2.3-0.1c0.9,0,1.9,0.3,2.9,0.5c1.4,0.5,2.6,1.2,3.8,2.2c1.3,1.2,2.2,2.6,2.7,4.3c0.3,0.6,0.4,1.3,0.4,1.9
			c0.1,0.6,0.1,1.3,0,2.1c-0.1,1-0.4,2.1-0.9,3.1c-0.4,0.9-0.9,1.8-1.4,2.6c-0.5,0.9-1,1.8-1.7,2.6c-1,1.6-2.1,3.2-3,4.9
			C576.8,375,574.6,379.9,574.4,380.7C574.4,380.5,574.4,380.7,574.4,380.7z M574.4,354.1c-1.9,0-3.6,1.6-3.8,3.6
			c0,2.1,1.7,3.6,3.6,3.8c1.9,0,3.6-1.6,3.8-3.6C578.2,355.8,576.5,354.1,574.4,354.1z"/>
		<path fill="none" stroke="#EB7C28" stroke-linecap="round" stroke-linejoin="round" stroke-miterlimit="10" d="M574.4,354.1
			c2.1,0,3.8,1.7,3.6,3.8c0,2.1-1.7,3.6-3.8,3.6c-1.9,0-3.6-1.6-3.6-3.8C570.8,355.6,572.5,354.1,574.4,354.1z"/>
	</g>
</g>
<g id="_x38_yb99e.tif_10_">
	<g>
		<path fill="none" stroke="#EB7C28" stroke-linecap="round" stroke-linejoin="round" stroke-miterlimit="10" d="M596.6,405.9
			c-0.5-2.1-1.3-4.2-2.2-6c-0.6-1.4-1.6-2.9-2.3-4.3c-0.9-1.3-1.7-2.7-2.6-4c-0.5-0.9-1-1.8-1.6-2.7c-0.4-0.8-0.8-1.6-1-2.5
			c-0.1-0.6-0.3-1.2-0.3-1.8c-0.1-1.4,0.1-2.7,0.6-4c0.3-0.9,0.8-1.7,1.3-2.5c0.9-1.2,2.1-2.2,3.4-2.9c0.9-0.5,1.9-0.8,3-1
			c0.8-0.1,1.6-0.1,2.3-0.1c0.9,0,1.9,0.3,2.9,0.5c1.4,0.5,2.6,1.2,3.8,2.2c1.3,1.2,2.2,2.6,2.7,4.3c0.3,0.6,0.4,1.3,0.4,1.9
			c0.1,0.6,0.1,1.3,0,2.1c-0.1,1-0.4,2.1-0.9,3.1c-0.4,0.9-0.9,1.8-1.4,2.6c-0.5,0.9-1,1.8-1.7,2.6c-1,1.6-2.1,3.2-3,4.9
			C599,400.1,596.9,405.1,596.6,405.9L596.6,405.9z M596.8,379.3c-1.9,0-3.6,1.6-3.8,3.6c0,2.1,1.7,3.6,3.6,3.8
			c1.9,0,3.6-1.6,3.8-3.6C600.4,380.9,598.7,379.3,596.8,379.3z"/>
		<path fill="none" stroke="#EB7C28" stroke-linecap="round" stroke-linejoin="round" stroke-miterlimit="10" d="M596.8,379.3
			c2.1,0,3.8,1.7,3.6,3.8c0,2.1-1.7,3.6-3.8,3.6c-1.9,0-3.6-1.6-3.6-3.8C593,380.8,594.7,379.3,596.8,379.3z"/>
	</g>
</g>
<g id="_x38_yb99e.tif_9_">
	<g>
		<path fill="none" stroke="#EB7C28" stroke-linecap="round" stroke-linejoin="round" stroke-miterlimit="10" d="M626.3,392.1
			c-0.5-2.1-1.3-4.2-2.2-6c-0.6-1.4-1.6-2.9-2.3-4.3c-0.9-1.3-1.7-2.7-2.6-4c-0.5-0.9-1-1.8-1.6-2.7c-0.4-0.8-0.8-1.6-1-2.5
			c-0.1-0.6-0.3-1.2-0.3-1.8c-0.1-1.4,0.1-2.7,0.6-4c0.3-0.9,0.8-1.7,1.3-2.5c0.9-1.2,2.1-2.2,3.4-2.9c0.9-0.5,1.9-0.8,3-1
			c0.8-0.1,1.6-0.1,2.3-0.1c0.9,0,1.9,0.3,2.9,0.5c1.4,0.5,2.6,1.2,3.8,2.2c1.3,1.2,2.2,2.6,2.7,4.3c0.3,0.6,0.4,1.3,0.4,1.9
			c0.1,0.6,0.1,1.3,0,2.1c-0.1,1-0.4,2.1-0.9,3.1c-0.4,0.9-0.9,1.8-1.4,2.6c-0.5,0.9-1,1.8-1.7,2.6c-1,1.6-2.1,3.2-3,4.9
			C628.7,386.4,626.6,391.3,626.3,392.1L626.3,392.1z M626.5,365.6c-1.9,0-3.6,1.6-3.8,3.6c0,2.1,1.7,3.6,3.6,3.8
			c1.9,0,3.6-1.6,3.8-3.6C630.1,367.2,628.4,365.6,626.5,365.6z"/>
		<path fill="none" stroke="#EB7C28" stroke-linecap="round" stroke-linejoin="round" stroke-miterlimit="10" d="M626.5,365.6
			c2.1,0,3.8,1.7,3.6,3.8c0,2.1-1.7,3.6-3.8,3.6c-1.9,0-3.6-1.6-3.6-3.8C622.7,367.2,624.4,365.6,626.5,365.6z"/>
	</g>
</g>
<polyline fill="none" stroke="#EB7C28" stroke-width="2" stroke-linecap="round" stroke-miterlimit="10" points="632.7,380.9 
	640.1,383 636.5,403.7 616.2,403.7 596.6,422.2 574.4,403.7 583,392.1 559.5,380.7 571.4,374.9 "/>
<polyline fill="none" stroke="#EB7C28" stroke-width="2" stroke-linecap="round" stroke-miterlimit="10" points="580.7,369.9 
	586.5,367.7 617.8,376.6 "/>
<polygon fill="#EB7C28" points="581.6,370.6 578.7,371.6 579.9,370.2 "/>
<polygon fill="#EB7C28" points="618.8,377.9 616.7,377.3 618.3,376.9 "/>
</svg>
