<?xml version="1.0" encoding="utf-8"?>
<!-- Generator: Adobe Illustrator 18.1.1, SVG Export Plug-In . SVG Version: 6.00 Build 0)  -->
<!DOCTYPE svg PUBLIC "-//W3C//DTD SVG 1.1//EN" "http://www.w3.org/Graphics/SVG/1.1/DTD/svg11.dtd">
<svg version="1.1" id="Layer_1" xmlns="http://www.w3.org/2000/svg" xmlns:xlink="http://www.w3.org/1999/xlink" x="0px" y="0px"
	 viewBox="537.3 323 126 126" enable-background="new 537.3 323 126 126" xml:space="preserve">
<circle fill="none" stroke="#F07E2F" stroke-miterlimit="10" cx="600.3" cy="385.8" r="60.4"/>
<path fill="none" stroke="#EC7B2A" stroke-width="2" stroke-miterlimit="10" d="M637.3,361.1c0,16.1,0,32.2,0,48.3
	c-1.1,0.3-2.2,0.8-3.3,0.8c-9.1,0.1-18.2,0-27.3,0c-3.8,0-3.8,0.1-5.3,3.6c-0.3,0.6-1.2,1.4-1.8,1.4c-0.7,0-1.7-0.7-2-1.4
	c-1.5-3.5-1.5-3.6-5.3-3.6c-9.2,0-18.3,0-27.5,0c-2.7,0-3.1-0.3-3.1-3c0-14.6,0-29.2,0-43.8c0-2.8,0.3-3.1,3.1-3.2
	c9.5,0,19-0.1,28.5,0.1c2,0,4.1,1.6,6.1,1.6c2,0,4.1-1.5,6.1-1.6c9.4-0.2,18.9-0.1,28.3,0C635,360.3,636.1,360.8,637.3,361.1z
	 M633.1,364.5c-0.5-0.1-0.9-0.1-1.4-0.1c-8.8,0-17.6,0-26.4,0c-2.8,0-3.8,1.1-3.8,4.1c0,12,0,24.1,0,36.1c0,0.5,0.1,1.1,0.1,1.7
	c0.4,0,0.8,0.1,1.1,0.1c9.3-0.1,18.6-0.2,27.9-0.2c2,0,2.6-0.6,2.6-2.6c-0.1-12.2,0-24.5,0-36.7
	C633.2,366.1,633.1,365.4,633.1,364.5z M597.3,406.2c0-0.4,0.1-1,0.1-1.7c0-11.9,0-23.9,0-35.8c0-3.4-0.9-4.3-4.4-4.4
	c-7.7,0-15.4,0-23.1,0c-1.3,0-2.6,0-4,0c0,14,0,27.8,0,41.9C576.5,406.2,586.8,406.2,597.3,406.2z"/>
<path fill="none" stroke="#EC7B2A" stroke-miterlimit="10" d="M617.3,397.2c-2.6,0-5.2,0-7.7,0c-1.5,0-2.5-0.5-2.5-2.1
	c0-1.6,0.8-2.4,2.4-2.4c5.3,0,10.6,0,15.9,0c1.6,0,2.5,0.8,2.5,2.4c0,1.6-1,2.1-2.5,2.1C622.7,397.2,620,397.2,617.3,397.2z"/>
<path fill="none" stroke="#EC7B2A" stroke-miterlimit="10" d="M617.6,372.9c2.7,0,5.3,0,8,0c1.4,0,2.3,0.5,2.3,2
	c0,1.5-0.9,2.1-2.3,2.1c-5.4,0-10.9,0-16.3,0c-1.4,0-2.3-0.6-2.2-2.1c0-1.5,1-2,2.4-2C612.2,372.9,614.9,372.9,617.6,372.9z"/>
<path fill="none" stroke="#EC7B2A" stroke-miterlimit="10" d="M617.7,387.1c-2.7,0-5.4,0-8.2,0c-1.5,0-2.5-0.5-2.4-2.1
	c0-1.5,1-2,2.4-2c5.4,0,10.7,0,16.1,0c1.4,0,2.3,0.5,2.3,2c0,1.5-0.9,2.1-2.3,2.1C623,387.1,620.3,387.1,617.7,387.1z"/>
<path fill="none" stroke="#EC7B2A" stroke-miterlimit="10" d="M581.3,397.2c-2.6,0-5.2,0-7.7,0c-1.6,0-2.7-0.5-2.6-2.2
	c0.1-1.6,1-2.3,2.6-2.3c5.2,0,10.5,0,15.7,0c1.7,0,2.5,0.7,2.5,2.3c0,1.8-1,2.2-2.6,2.2C586.6,397.1,584,397.2,581.3,397.2z"/>
<path fill="none" stroke="#EC7B2A" stroke-miterlimit="10" d="M581.3,377c-2.7,0-5.3,0-8,0c-1.4,0-2.3-0.5-2.4-2
	c0-1.5,0.8-2.1,2.3-2.1c5.4,0,10.9,0,16.3,0c1.4,0,2.3,0.6,2.3,2.1c0,1.5-1,2-2.4,2C586.8,377,584,377,581.3,377z"/>
<path fill="none" stroke="#EC7B2A" stroke-miterlimit="10" d="M581.5,383c2.7,0,5.3,0,8,0c1.4,0,2.4,0.4,2.4,2
	c0.1,1.6-0.9,2.2-2.4,2.2c-5.4,0-10.7,0-16.1,0c-1.4,0-2.3-0.6-2.3-2.1c0-1.5,0.9-2,2.3-2C576,383,578.8,383,581.5,383z"/>
</svg>
