<?xml version="1.0" encoding="utf-8"?>
<!-- Generator: Adobe Illustrator 18.1.1, SVG Export Plug-In . SVG Version: 6.00 Build 0)  -->
<!DOCTYPE svg PUBLIC "-//W3C//DTD SVG 1.1//EN" "http://www.w3.org/Graphics/SVG/1.1/DTD/svg11.dtd">
<svg version="1.1" id="Layer_1" xmlns="http://www.w3.org/2000/svg" xmlns:xlink="http://www.w3.org/1999/xlink" x="0px" y="0px"
	 viewBox="537.3 323 126 126" enable-background="new 537.3 323 126 126" xml:space="preserve">
<circle fill="none" stroke="#F07E2F" stroke-miterlimit="10" cx="600.3" cy="385.9" r="60.4"/>
<g id="Layer_1_2_">
	<circle fill="#ED7C29" cx="565.6" cy="363.7" r="1.3"/>
	<circle fill="#ED7C29" cx="562.2" cy="363.7" r="1.3"/>
	<path fill="none" stroke="#F07E2F" stroke-miterlimit="10" d="M608.9,378.2l4-1.3l-1-2.8l-3.7,1.7L608.9,378.2z"/>
	<path fill="none" stroke="#F07E2F" stroke-miterlimit="10" d="M635.8,378.6l-16,6.4l1.4,4l15.6-6.8L635.8,378.6z"/>
	<path fill="none" stroke="#F07E2F" stroke-miterlimit="10" d="M622.5,369.9l-4,0.9l0.4,1l2.2-0.4l1.1,3.2l1.9-0.9L622.5,369.9z"/>
	<polygon fill="none" stroke="#F07E2F" stroke-miterlimit="10" points="632.5,369.9 629.7,369.9 627.9,369.9 625.9,370.4 
		627.2,374.8 617.7,378.6 618.5,382.1 635.3,375.7 633.1,369.9 	"/>
	<polygon fill="none" stroke="#F07E2F" stroke-miterlimit="10" points="595.9,397.8 601.5,406.5 613.8,400.6 610.8,390.3 	"/>
	<polygon fill="none" stroke="#F07E2F" stroke-miterlimit="10" points="579.7,386.5 579.9,401.5 591.4,395.2 587.4,383.3 	"/>
	<polygon fill="none" stroke="#F07E2F" stroke-miterlimit="10" points="622.4,407.5 620.2,402.2 617.2,403.5 619.8,408.7 	"/>
	<polygon fill="none" stroke="#F07E2F" stroke-miterlimit="10" points="617.2,410 614.9,404.7 611.7,405.9 614.3,410.6 	"/>
	<polygon fill="none" stroke="#F07E2F" stroke-miterlimit="10" points="637.9,402.5 635.6,397.2 632.7,398.5 635.3,403.7 	"/>
	<polygon fill="none" stroke="#F07E2F" stroke-miterlimit="10" points="607.3,379.1 606.2,375.8 601.8,377.1 604,381.4 	"/>
	<polygon fill="none" stroke="#F07E2F" stroke-miterlimit="10" points="617.7,391.2 616.6,387.9 612.2,389.2 614.1,392.8 	"/>
	<polygon fill="none" stroke="#F07E2F" stroke-miterlimit="10" points="614.8,395.4 615.9,398.8 620.5,396.7 619.2,393.2 	"/>
	<polygon fill="none" stroke="#F07E2F" stroke-miterlimit="10" points="623.3,392.1 625.9,395.2 633.2,391.9 631.8,388.5 	"/>
	<polygon fill="none" stroke="#F07E2F" stroke-miterlimit="10" points="592.1,406.6 592.5,410.6 599.9,407.3 597.5,404.3 	"/>
	<path fill="#ED7C29" d="M617.4,384.6L617.4,384.6L623,399l-29.3,12.6l2.3-0.1l27.1-11.5l0.3,11.5h0.9l-0.4-11.9l5.4-2.3l4.7,14.3
		l0.7-0.1l-4.6-14.6l9.2-4v-0.9l-15.5,6.8l-2.8-7.3l17.3-7.5l1,3.6v-3.3l-0.2-0.7l0.2-0.1v-0.9l-0.4,0.2l-1.6-5.9l2-0.8v-0.9
		l-2.3,0.9l-1.8-7.4h-0.9l1.8,7.7l-18.3,7.3l-4.5-11.6l8.8-3.4l-2.4-0.1L613,371l-1.4-2.6h-0.9l1.5,2.9l-18.7,6.9l-3.9-9.8
		c0,0-1.3,0-1.3,0.1l4.3,9.9l-10.8,4l-2-6v2.8l1.2,3.6l-1.2,0.4v0.9l32.7-11.9l4.5,11.6l-0.1,0.1l0.2,0.4l-0.2-0.4l-37.1,19.2v1
		l8.6-4.5l-0.2,11.9h0.8l0.2-12.3L617.4,384.6z M636.4,377.1l1.6,6l-17.4,7.5l-2.4-6.1L636.4,377.1z"/>
	<polygon fill="none" stroke="#F07E2F" stroke-miterlimit="10" points="610.8,385.3 608.7,380.6 605.8,381.9 608.2,386.5 	"/>
	<polygon fill="none" stroke="#F07E2F" stroke-miterlimit="10" points="615.7,383.1 613.7,378.4 610.8,379.7 613.1,384.3 	"/>
	<polygon fill="none" stroke="#F07E2F" stroke-miterlimit="10" points="619.6,376 617.7,371.5 614.8,372.7 616.9,377.2 	"/>
	<polygon fill="none" stroke="#F07E2F" stroke-miterlimit="10" points="604.6,388.5 602.3,383.3 599.4,384.6 602,389.7 	"/>
	<polygon fill="none" stroke="#F07E2F" stroke-miterlimit="10" points="596,402.9 594,398.3 591.1,399.5 592.1,404.7 	"/>
	<polygon fill="none" stroke="#F07E2F" stroke-miterlimit="10" points="600.1,390.6 597.8,385.3 594.9,386.5 597.5,391.7 	"/>
	<polygon fill="none" stroke="#F07E2F" stroke-miterlimit="10" points="597.5,375.2 595.2,369.9 592.3,371.2 594.9,376.4 	"/>
	<polygon fill="none" stroke="#F07E2F" stroke-miterlimit="10" points="596.3,392.4 594,387.1 591.1,388.4 593.7,393.6 	"/>
	<polygon fill="none" stroke="#F07E2F" stroke-miterlimit="10" points="586.2,409.3 586.2,402.5 581,405.3 583.6,410.5 	"/>
	<polygon fill="none" stroke="#F07E2F" stroke-miterlimit="10" points="600.8,382.4 598.5,378.3 596.4,379.2 598.2,383.6 	"/>
	<polygon fill="none" stroke="#F07E2F" stroke-miterlimit="10" points="597.1,384.1 594.9,380 592.7,380.9 594.6,385.3 	"/>
	<polygon fill="none" stroke="#F07E2F" stroke-miterlimit="10" points="590.6,377.5 588.8,373.3 586.2,374.2 588,378.7 	"/>
	<polygon fill="none" stroke="#F07E2F" stroke-miterlimit="10" points="601.6,373.7 599.8,369.6 597.1,370.5 599,374.9 	"/>
	<path fill="none" stroke="#F07E2F" stroke-miterlimit="10" d="M601.1,368.9l1.8,4.4l2.6-1.2l-1.5-3.5"/>
	<path fill="none" stroke="#F07E2F" stroke-miterlimit="10" d="M606.3,368.6l1,2.7l2.6-0.7l-0.9-1.9"/>
	<polygon fill="none" stroke="#F07E2F" stroke-miterlimit="10" points="593.7,385.3 591.4,381.2 589.2,382.1 591.1,386.5 	"/>
	<path fill="none" stroke="#FFFFFF" stroke-miterlimit="10" d="M604.6,381.3"/>
	<circle fill="#ED7C29" cx="604.8" cy="398.9" r="1"/>
	<circle fill="#ED7C29" cx="626.5" cy="401.5" r="1"/>
	<circle fill="#ED7C29" cx="628.9" cy="383.5" r="1"/>
	<circle fill="#ED7C29" cx="595.9" cy="407.3" r="1"/>
	<circle fill="#ED7C29" cx="604.6" cy="378.4" r="1"/>
	<circle fill="#ED7C29" cx="583.6" cy="379.4" r="1"/>
	<circle fill="#ED7C29" cx="569" cy="363.7" r="1.3"/>
	<g>
		<rect x="560.9" y="368.6" fill="none" stroke="#F07E2F" stroke-miterlimit="10" width="18.7" height="42.9"/>
		<rect x="579.7" y="368.5" fill="none" stroke="#F07E2F" stroke-miterlimit="10" width="59.6" height="43.1"/>
		<rect x="603.6" y="370.8" fill="#FFFFFF" stroke="#F07E2F" stroke-miterlimit="10" width="33.1" height="7.8"/>
		<rect x="560.9" y="368.9" fill="none" stroke="#F07E2F" stroke-miterlimit="10" width="18.7" height="10.6"/>
		<rect x="557.8" y="359.7" fill="none" stroke="#F07E2F" stroke-miterlimit="10" width="84.5" height="55"/>
		<path fill="none" stroke="#F07E2F" stroke-miterlimit="10" d="M639.1,363.6v0.6c0,0.7-0.4,1.2-0.9,1.2h-63.3
			c-0.5,0-0.9-0.5-0.9-1.2v-0.6c0-0.7,0.4-1.2,0.9-1.2h63.3C638.7,362.4,639.1,362.9,639.1,363.6z"/>
		<line fill="none" stroke="#F07E2F" stroke-miterlimit="10" x1="568.3" y1="395.7" x2="573.9" y2="395.7"/>
		<line fill="none" stroke="#F07E2F" stroke-miterlimit="10" x1="568.3" y1="404.4" x2="569.9" y2="404.4"/>
		<line fill="none" stroke="#F07E2F" stroke-miterlimit="10" x1="573.1" y1="387.1" x2="577.2" y2="387.1"/>
		<line fill="none" stroke="#F07E2F" stroke-miterlimit="10" x1="568.3" y1="387.1" x2="571.5" y2="387.1"/>
		<line fill="none" stroke="#F07E2F" stroke-miterlimit="10" x1="571.5" y1="404.4" x2="577.2" y2="404.4"/>
		<line fill="none" stroke="#F07E2F" stroke-miterlimit="10" x1="575.6" y1="395.7" x2="577.2" y2="395.7"/>
		<rect x="569.9" y="401.5" fill="none" stroke="#F07E2F" stroke-miterlimit="10" width="1.6" height="5.8"/>
		<rect x="573.9" y="392.8" fill="none" stroke="#F07E2F" stroke-miterlimit="10" width="1.6" height="5.8"/>
		<rect x="571.5" y="384.2" fill="none" stroke="#F07E2F" stroke-miterlimit="10" width="1.6" height="5.8"/>
		<path fill="none" stroke="#F07E2F" stroke-miterlimit="10" d="M564.8,403.1c0.7,0,1.3,0.6,1.3,1.3c0,0.7-0.6,1.3-1.3,1.3
			c-0.7,0-1.3-0.6-1.3-1.3C563.5,403.7,564.1,403.1,564.8,403.1z"/>
		<path fill="none" stroke="#F07E2F" stroke-miterlimit="10" d="M564.8,394.4c0.7,0,1.3,0.6,1.3,1.3c0,0.7-0.6,1.3-1.3,1.3
			c-0.7,0-1.3-0.6-1.3-1.3C563.5,395,564.1,394.4,564.8,394.4z"/>
		<path fill="none" stroke="#F07E2F" stroke-miterlimit="10" d="M564.8,385.8c0.7,0,1.3,0.6,1.3,1.3c0,0.7-0.6,1.3-1.3,1.3
			c-0.7,0-1.3-0.6-1.3-1.3C563.5,386.4,564.1,385.8,564.8,385.8z"/>
		<path fill="none" stroke="#F07E2F" stroke-miterlimit="10" d="M631.2,372.6c0.9,0,1.7,0.8,1.7,1.7c0,0.9-0.8,1.7-1.7,1.7
			s-1.7-0.8-1.7-1.7C629.5,373.4,630.2,372.6,631.2,372.6z"/>
		<line fill="none" stroke="#F07E2F" stroke-miterlimit="10" x1="632.6" y1="375.8" x2="633.9" y2="377"/>
		<line fill="none" stroke="#F07E2F" stroke-miterlimit="10" x1="625.9" y1="370.8" x2="625.9" y2="378.6"/>
	</g>
</g>
</svg>
