<?xml version="1.0" encoding="utf-8"?>
<!-- Generator: Adobe Illustrator 18.1.1, SVG Export Plug-In . SVG Version: 6.00 Build 0)  -->
<!DOCTYPE svg PUBLIC "-//W3C//DTD SVG 1.1//EN" "http://www.w3.org/Graphics/SVG/1.1/DTD/svg11.dtd">
<svg version="1.1" id="Layer_1" xmlns="http://www.w3.org/2000/svg" xmlns:xlink="http://www.w3.org/1999/xlink" x="0px" y="0px"
	 viewBox="537.3 323 126 126" enable-background="new 537.3 323 126 126" xml:space="preserve">
<circle fill="none" stroke="#F07E2F" stroke-miterlimit="10" cx="600.3" cy="385.9" r="60.4"/>
<g>
	<path fill="#ED7B27" d="M618.8,383.1h-6.1c-0.9,0.9-2,0.6-3.2,1.3h8l0,33.5h-32.5l0-33.5h7.6c-1.2-0.7-2.2-0.4-3.2-1.3h-5.7
		l-0.4,36.1h35.8L618.8,383.1z"/>
</g>
<g>
	<circle fill="#FFFFFF" cx="601" cy="369.3" r="17.1"/>
	<path fill="#ED7B27" d="M583.3,369.3c0-10.3,7.3-17.6,17.6-17.6c10.3,0,17.6,7.3,17.6,17.6c0,10.3-7.3,17.6-17.6,17.6
		C590.7,387,583.3,379.6,583.3,369.3z M584.9,369.3c0,8.9,7.2,16.1,16.1,16.1c8.9,0,16.1-7.2,16.1-16.1c0-8.9-7.2-16.1-16.1-16.1
		C592.1,353.2,584.9,360.4,584.9,369.3z"/>
	<circle fill="#ED7B27" cx="595.2" cy="366.8" r="2.5"/>
	<circle fill="#ED7B27" cx="607.5" cy="366.8" r="2.5"/>
</g>
<circle fill="none" stroke="#F07E2F" stroke-miterlimit="10" cx="600.3" cy="385.9" r="60.6"/>
</svg>
