<?xml version="1.0" encoding="utf-8"?>
<!-- Generator: Adobe Illustrator 18.1.1, SVG Export Plug-In . SVG Version: 6.00 Build 0)  -->
<!DOCTYPE svg PUBLIC "-//W3C//DTD SVG 1.1//EN" "http://www.w3.org/Graphics/SVG/1.1/DTD/svg11.dtd">
<svg version="1.1" id="Layer_1" xmlns="http://www.w3.org/2000/svg" xmlns:xlink="http://www.w3.org/1999/xlink" x="0px" y="0px"
	 viewBox="539.8 326.6 120.9 120.9" enable-background="new 539.8 326.6 120.9 120.9" xml:space="preserve">
<g>
	<path fill="#F07E2F" d="M599.1,436.1c-0.1-0.1-0.3-0.1-0.4-0.1c-1.3-0.3-2.2-0.9-3-1.9c-0.3-0.3-0.4-0.5-0.5-0.8
		c-0.4-0.8-1-1.2-1.8-1.6c-2.2-0.8-3.5-2.3-4-4.5c-0.1-0.6-0.1-1.3-0.1-1.9c0-0.3,0-0.3,0.4-0.3c0.8,0,1.6,0,2.3,0
		c1.4,0,2.8,0,4.3,0c4.3,0,8.5,0,12.8,0c0.3,0,0.4,0,0.6,0c0.5,0.1,0.6,0.4,0.6,0.9c0,0.4-0.1,0.9-0.1,1.3c-0.5,2.3-1.9,3.8-4.1,4.7
		c-0.8,0.3-1.3,0.8-1.7,1.4c-0.6,1-1.4,1.8-2.5,2.3c-0.4,0.3-0.9,0.3-1.4,0.4c-0.1,0-0.1,0-0.3,0.1
		C600,436.1,599.6,436.1,599.1,436.1z M590.9,426.5c0,0.1,0,0.1,0,0.3c0.3,2.1,1.9,3.8,4,3.9c1.3,0.1,2.7,0.1,4,0.1
		c1.7,0,3.2,0,4.9-0.1c0.5,0,0.9,0,1.4-0.1c1.8-0.4,3.1-1.9,3.4-3.5c0-0.5,0.1-0.5-0.4-0.5c-5.6,0-11.3,0-16.8,0
		C591.3,426.5,591.2,426.5,590.9,426.5z M596.5,432.4c0.5,1.4,1.7,2.3,3.8,2.2c1.3-0.1,2.6-1,2.8-2.2
		C600.9,432.4,598.7,432.4,596.5,432.4z"/>
	<path fill="#F07E2F" d="M557.6,383.7c0.1,0,0.3-0.1,0.4-0.3c0.3-0.3,0.6-0.4,1.2-0.4c2.3-0.1,4.5-0.3,6.9-0.4
		c0.8,0,1.6-0.1,2.2-0.1c0.5,0,1,0.1,1.4,0.6c-0.3,0.4-0.5,0.6-1,0.6c-0.9,0-1.8,0.1-2.8,0.1c-1.4,0.1-3,0.1-4.4,0.3
		c-0.8,0-1.7,0.1-2.5,0.1c-0.4,0-0.6-0.1-0.9-0.4C557.9,384,557.8,383.8,557.6,383.7L557.6,383.7z"/>
	<path fill="#F07E2F" d="M642.2,383.8c-0.1,0-0.3,0.1-0.4,0.1c-0.4,0.3-0.9,0.4-1.4,0.3c-1.7-0.1-3.4-0.1-5-0.3
		c-1.2-0.1-2.3-0.1-3.5-0.3c-0.4,0-0.6-0.1-1-0.4c-0.1-0.1-0.3-0.3-0.5-0.4c0.5-0.3,1-0.5,1.6-0.5c0.9,0,1.7,0.1,2.6,0.1
		c1.3,0,2.5,0.1,3.8,0.3c0.9,0,1.7,0.1,2.6,0.1c0.4,0,0.6,0.3,1,0.4c0.1,0.1,0.3,0.3,0.5,0.3C642.2,383.7,642.2,383.8,642.2,383.8z"
		/>
	<path fill="#F07E2F" d="M600.7,339.8c0,0.1,0.3,0.3,0.4,0.4c0.1,0.3,0.3,0.4,0.3,0.6c0,2.7,0,5.4,0,8.2c0,0.5,0,0.9,0,1.4
		c0,0.4-0.1,0.6-0.4,0.9c-0.1,0.1-0.1,0.1-0.3,0.3c-0.4-0.4-0.6-0.8-0.6-1.3c0-3.1,0-6.2,0-9.3c0-0.4,0.1-0.8,0.3-1
		C600.5,340,600.6,340,600.7,339.8C600.6,339.8,600.7,339.8,600.7,339.8z"/>
	<path fill="#F07E2F" d="M599.8,415.7c-3.6,0-7.4,0-11,0c-0.6,0-0.5,0.1-0.5-0.5c0-1.7,0-3.5,0-5.2c0-0.9-0.1-1.8-0.3-2.6
		c-0.1-0.4-0.3-0.9-0.5-1.3c-1.6-2.5-3.2-4.9-4.9-7.4c-0.6-0.9-1.3-1.7-1.8-2.5c-2.5-3.2-4-6.9-4.8-10.7c-0.4-2.3-0.5-4.8-0.3-7.1
		c0.9-7,4.4-12.6,10-16.8c2.5-1.8,5.3-3.2,8.3-4c2.5-0.6,4.9-0.8,7.5-0.6c5.4,0.4,10.2,2.5,14.4,6c4,3.4,6.6,7.6,7.8,12.8
		c0.4,1.8,0.5,3.5,0.6,5.3c0,3.4-0.5,6.6-1.9,9.8c-0.8,1.9-1.8,3.8-3.1,5.4c-2.2,2.8-4.3,6-6.2,8.9c-0.3,0.4-0.4,0.6-0.6,1
		c-0.6,0.8-0.8,1.7-0.8,2.7c0,2.1,0,4.1,0,6.2c0,0.1,0,0.1,0,0.3c0,0.3-0.1,0.3-0.3,0.3c-0.3,0-0.6,0-0.9,0
		C606.7,415.7,603.2,415.7,599.8,415.7z M597.2,372.8L597.2,372.8c-0.4,0.1-0.8,0.1-1.2,0.1c-0.3,0-0.6,0-0.9,0
		c-0.1,0-0.3,0-0.1,0.1c0,0.1,0,0.1,0,0.3c0,1.2,0,2.3,0,3.5c0,0.4,0,0.4-0.4,0.4c-0.5,0-1,0-1.7,0c-0.1,0-0.3,0-0.3,0.3
		c0,0.5,0,1,0,1.6c0,0.1,0,0.3,0.3,0.3c0,0,0.1,0,0.3,0c2.3,0,4.7,0,7,0c0.1,0,0.1,0,0.3,0c0.1,0,0.3-0.1,0.3-0.3s0-0.1,0-0.3
		c0-1.6,0-3.1,0-4.8c0-1.7,0-3.4,0-5.2c0-0.3,0-0.4,0.3-0.4c0.5,0,1,0,1.7,0c0.5,0,0.5,0,0.5-0.4c0-0.5,0-1,0-1.7
		c0-0.1,0-0.3,0.3-0.3c0.1,0,0.3,0,0.3,0c3.4,0,6.7,0,10,0c0.6,0,1.4,0,2.1,0c0.3,0,0.3,0,0.3,0.3c0,0.5,0,1,0,1.6
		c0,0.4,0,0.4,0.5,0.4c0.4,0,0.9,0,1.3,0c0.5,0,0.5,0,0.5,0.5c0,5.4,0,10.9,0,16.2c0,0.1,0,0.3,0,0.4c0,0.1,0,0.1,0.1,0.1
		c0.4,0,0.8,0,1.2,0c0.1,0,0.3,0,0.3-0.3c0-0.4,0-0.6,0-1c0-0.5,0-1.2,0-1.7c0-0.3,0.1-0.3,0.3-0.3c0.3,0,0.4,0,0.6,0
		c0.3,0,0.3,0,0.4-0.3c0.3-0.9,0.8-1.7,1.6-2.2c0.3-0.1,0.3-0.3,0.3-0.5c-0.1-1.4-0.3-2.8-0.6-4.1c-1.6-5.8-4.9-10.4-10-13.6
		c-3.4-2.2-7-3.4-10.9-3.5c-2.6-0.1-5.2,0.1-7.6,0.9c-4.5,1.3-8.3,3.8-11.4,7.5c-3.1,3.8-4.8,8-5.2,12.8c-0.1,2.2,0,4.3,0.4,6.3
		c0.1,0.3,0.1,0.3,0.4,0.3c0.8,0,1.4,0,2.2,0c1.3,0,2.7,0,4,0c0.3,0,0.3,0,0.3-0.3c0-0.6,0-1.3,0-1.9c0-0.3,0-0.3-0.3-0.3
		c-0.5,0-1,0-1.6,0s-0.5,0.1-0.5-0.5c0-1.2,0-2.3,0-3.5c0-0.5,0-0.4,0.4-0.4c1.3,0,2.6,0,3.9,0c0.3,0,0.3,0,0.3-0.4
		c0-0.5,0-0.9,0-1.4c0-0.3-0.1-0.3-0.3-0.3c-0.5,0-1,0-1.7,0c-0.4,0-0.4,0-0.4-0.4c0-1.2,0-2.3,0-3.5c0-0.6,0-0.6-0.6-0.6
		c-0.5,0-1.2,0-1.7,0c0.1-0.1,0.1-0.1,0.1-0.1c2.5-1.4,4.8-2.7,7.2-4.1c0.1-0.1,0.3,0,0.5,0c1.4,0.8,2.8,1.7,4.4,2.5
		C595.2,371.7,596.2,372.3,597.2,372.8z M605.1,399.1c0-4.9,0-9.8,0-14.8c0-0.1,0-0.3,0-0.3c0-0.1-0.1-0.3-0.3-0.3c0,0-0.1,0-0.3,0
		c-6.2,0-12.3,0-18.5,0c-0.1,0-0.1,0-0.3,0c-0.1,0-0.1,0-0.1,0.1s0,0.1,0,0.3c0,5.6,0,11,0,16.6c0,0.3,0,0.4,0.1,0.5
		c0.6,1,1.4,1.9,2.1,3c0.4,0.6,0.9,1.3,1.2,1.9c0.1,0.3,0.3,0.3,0.5,0.3c0.5,0,1.2,0,1.7,0c0.3,0,0.3,0,0.3,0.3c0,1.3,0,2.6,0,3.9
		c0,0.3-0.1,0.3-0.3,0.3c-0.5,0-0.9,0-1.4,0c-0.3,0-0.3,0-0.3,0.3c0,0.5,0,1.2,0,1.7c0,0.3,0,0.3,0.4,0.3c0.4,0,0.8,0,1.3,0
		c0.4,0,0.4,0,0.4,0.3c0,0.1,0,0.4,0,0.5s0,0.1,0.1,0.1c0.6,0,1.3,0,1.9,0c0.1,0,0.1,0,0.1-0.1c0-0.3,0-0.4,0-0.6
		c0-0.1,0-0.3,0.3-0.3c0.1,0,0.3,0,0.4,0c0.8,0,1.4,0,2.2,0c0.4,0,0.4,0,0.4,0.4c0,0.1,0,0.4,0,0.5s0,0.1,0.1,0.1c0.6,0,1.3,0,1.9,0
		c0.1,0,0.3,0,0.3-0.3s0-0.4,0-0.6c0-0.1,0-0.3,0.3-0.3c0.9,0,1.8,0,2.7,0c0.1,0,0.3,0.1,0.3,0.3c0,0.3,0,0.4,0,0.6s0.1,0.3,0.3,0.3
		c0.6,0,1.3,0,1.9,0c0.4,0,0.4,0,0.4-0.4c0-0.1,0-0.1,0-0.3C605.1,408.8,605.1,403.9,605.1,399.1z M617,396.5
		C617,396.5,616.9,396.5,617,396.5c-1.6-0.8-3-1.6-4.5-2.2c-0.1-0.1-0.3,0-0.5,0c-0.8,0.4-1.4,0.8-2.2,1c-1,0.5-2.1,1-3.1,1.6
		c-0.3,0.1-0.3,0.3-0.3,0.4v0.1c0,5.4,0,10.7,0,16.2c0,0.1,0,0.1,0,0.3c0,0.3,0.1,0.3,0.3,0.3c0.8,0,1.4,0,2.2,0
		c0.4,0,0.6-0.3,0.8-0.5c0.1-0.3,0.1-0.4,0.1-0.6c0-0.5,0-1,0-1.7c0-1,0-2.1,0.1-3.1c0.1-0.5,0.1-0.5-0.4-0.5c-0.3,0-0.3,0-0.3,0.3
		c0,0.1,0,0.1,0,0.3c0,0.8,0,1.6,0,2.3c0,0.4,0,0.4-0.4,0.4c-0.3,0-0.4,0-0.6,0c-0.3,0-0.3,0-0.3-0.3c0-1.3,0-2.6,0-3.9
		c0-0.3,0-0.3,0.4-0.3c0.6,0,1.3,0,1.9,0c0.1,0,0.3,0,0.4-0.3c0.1-0.3,0.3-0.4,0.4-0.6c0.6-1,1.4-2.1,2.1-3.1
		c0.1-0.3,0.3-0.4,0.1-0.6c0-0.3,0-0.6,0-0.9c0-0.4,0-0.8,0-1.2c0.4-0.1,0.8,0,1.2,0c0.1,0,0.1,0,0.3,0c0.3,0,0.4-0.1,0.5-0.3
		c0.6-0.9,1.3-1.8,1.8-2.6C616.9,396.8,617,396.6,617,396.5z M595.4,382.4c3.9,0,7.6,0,11.5,0c0.1,0,0.1,0,0.3,0
		c0.4,0,0.4,0,0.4-0.3c0-0.4,0-0.6,0-1c0-0.5,0-0.5-0.5-0.5c-7.6,0-15.4,0-23,0l0,0c-0.5,0-0.4,0-0.4,0.4c0,0.3,0,0.6,0,0.9
		c0,0.5,0,0.5,0.5,0.5C587.7,382.4,591.6,382.4,595.4,382.4z M608.8,394.4c0.4-0.1,0.6-0.3,0.9-0.4c0.1,0,0.1-0.1,0.1-0.1
		c0-0.1,0-0.3,0-0.4c0-7.6,0-15.1,0-22.8c0-0.8,0-0.8-0.8-0.8l0,0c-0.1,0-0.1,0-0.1,0.1c0,0.1,0,0.1,0,0.3c0,7.9,0,15.7,0,23.6
		C608.8,394.2,608.8,394.3,608.8,394.4z M611.1,393.3c0.3-0.1,0.5-0.3,0.8-0.4c0.1-0.1,0.3-0.3,0.3-0.4c0,0,0-0.1,0-0.3
		c0-7.2,0-14.5,0-21.9c0-0.5,0-0.5-0.5-0.5s-0.5,0-0.5,0.5c0,7.5,0,14.9,0,22.4C611.1,393,611.1,393.2,611.1,393.3z M616.7,394.8
		c0-0.1,0-0.3,0-0.4c0-8,0-15.9,0-23.9c0-0.1,0-0.3,0-0.3c0-0.1,0-0.3-0.1-0.3c-0.1,0-0.1,0-0.3,0c-0.5,0-0.5,0-0.5,0.5
		c0,7.8,0,15.4,0,23.2c0,0.3-0.1,0.6,0,0.8C616,394.6,616.3,394.7,616.7,394.8C616.5,394.8,616.5,394.8,616.7,394.8z M614.5,393.7
		c0-0.1,0-0.3,0-0.4c0-7.6,0-15.1,0-22.8c0-0.1,0-0.1,0-0.3s0-0.3-0.3-0.3c-0.1,0-0.1,0-0.3,0c-0.6,0-0.5-0.1-0.5,0.5
		c0,7.2,0,14.5,0,21.7c0,0.3-0.1,0.6,0,0.9C613.7,393.5,614.1,393.5,614.5,393.7C614.3,393.7,614.3,393.7,614.5,393.7z M618.1,395.2
		c1-1.4,1.9-2.8,2.7-4.5c-0.4,0-0.6,0-0.9,0c-0.1,0-0.3,0-0.3-0.3c0-0.3,0-0.5,0-0.8c0-0.3,0-0.3,0.3-0.3c0.4,0,0.9,0,1.3,0
		c0.1,0,0.3,0,0.3-0.1c0.3-0.6,0.4-1.2,0.5-1.8v-0.1c-0.5,0-0.9,0-1.4,0c-0.6,0-1.4,0-2.1,0c-0.3,0-0.3,0-0.3,0.4c0,0,0,0,0,0.1
		c0,2.5,0,4.8,0,7.2C618,395,618,395.1,618.1,395.2z M584.4,390.3c0-0.8,0-1.6,0-2.5c0-0.3,0-0.3-0.3-0.3c-0.5,0-1,0-1.6,0
		c-0.3,0-0.3,0-0.3,0.4c0,0.8,0,1.7,0,2.5c0,0.8,0,1.4,0,2.2c0,0.3,0,0.3,0.3,0.3c0.5,0,1,0,1.6,0c0.3,0,0.4,0,0.4-0.3
		C584.4,391.9,584.4,391.1,584.4,390.3z M606.6,395.6c0.3,0,0.4-0.1,0.5-0.3c0.3-0.1,0.4-0.3,0.4-0.6c0-3.5,0-6.9,0-10.4
		c0-0.6,0-0.6-0.6-0.6c-0.4,0-0.4,0-0.4,0.4c0,0,0,0,0,0.1c0,3.6,0,7.4,0,11C606.4,395.4,606.4,395.5,606.6,395.6z M609.3,367.7
		c-1.6,0-3.1,0-4.5,0c-0.6,0-0.6,0-0.6,0.6c0,0.4,0,0.4,0.4,0.4c3.1,0,6.3,0,9.4,0c0.1,0,0.1,0,0.3,0c0.1,0,0.1,0,0.1-0.1
		c0-0.3,0-0.4,0-0.6c0-0.1-0.1-0.3-0.3-0.3s-0.1,0-0.3,0C612.4,367.7,610.8,367.7,609.3,367.7z M602.8,374.6c0-1.4,0-2.8,0-4.1
		c0-0.1,0-0.1,0-0.3s-0.1-0.1-0.1-0.1c-0.1,0-0.4,0-0.5,0c-0.4,0-0.4,0-0.4,0.4c0,0.1,0,0.1,0,0.3c0,2.7,0,5.3,0,8
		c0,0.3-0.1,0.5,0,0.6c0.1,0.1,0.4,0,0.6,0c0.4,0,0.4,0,0.4-0.4C602.8,377.5,602.8,376.1,602.8,374.6z M580.8,390.3
		c0-0.8,0-1.6,0-2.5c0-0.3-0.1-0.3-0.3-0.3c-0.6,0-1.2,0-1.8,0c-0.3,0-0.3,0.1-0.3,0.3c0,0.5,0,1,0,1.6c0,0.1,0,0.3,0.1,0.4
		c0.4,0.9,0.8,1.8,1.3,2.7c0.1,0.3,0.4,0.4,0.6,0.4s0.3,0,0.3-0.3C580.8,391.9,580.8,391.1,580.8,390.3z M607.5,374.6
		c0-1.3,0-2.6,0-3.9c0-0.8,0-0.8-0.8-0.6c-0.1,0-0.3,0.1-0.3,0.3s0,0.1,0,0.3c0,2.7,0,5.3,0,8c0,0.8,0,0.8,0.8,0.8l0,0
		c0.1,0,0.1,0,0.1-0.1s0-0.1,0-0.3C607.5,377.5,607.5,376.1,607.5,374.6z M605.1,374.6c0-1.3,0-2.7,0-4c0-0.8,0.1-0.6-0.6-0.6
		c-0.4,0-0.4,0-0.4,0.4v0.1c0,2.8,0,5.6,0,8.4c0,0.1,0,0.1,0,0.3s0.1,0.3,0.3,0.3c0.3,0,0.4,0,0.6,0c0.1,0,0.3,0,0.1-0.1
		c0-0.1,0-0.1,0-0.3C605.1,377.5,605.1,376.1,605.1,374.6z M584.4,399c0-1.4,0-2.8,0-4.4c0-0.1,0-0.3-0.3-0.3c-0.5,0-1.2,0-1.7,0
		c-0.1,0-0.3,0.1-0.3,0.3c0,0.4,0,0.8,0,1.2c0,0.1,0,0.3,0.1,0.4c0.6,0.9,1.3,1.7,1.8,2.6C584.2,398.8,584.3,398.8,584.4,399z
		 M589.6,379.3c0.5,0,1,0,1.4,0c0.1,0,0.3,0,0.3-0.3c0-0.5,0-1,0-1.6c0-0.1-0.1-0.3-0.3-0.3c-0.9,0-1.9,0-2.8,0
		c-0.1,0-0.3,0-0.3,0.3c0,0.5,0,1,0,1.6c0,0.3,0,0.3,0.3,0.3C588.7,379.3,589.2,379.3,589.6,379.3z M592.2,371.5L592.2,371.5
		c-0.8-0.5-1.6-1-2.3-1.4c-0.1-0.1-0.3,0-0.4,0c-0.4,0.3-0.9,0.5-1.3,0.8c-0.4,0.1-0.6,0.4-1,0.6
		C588.8,371.5,590.5,371.5,592.2,371.5z M591.3,374.5c0-0.3,0-0.5,0-0.9c0-0.8,0-0.8-0.8-0.6c-0.3,0-0.3,0-0.3,0.3
		c0,0.6,0,1.4,0,2.1c0,0.8,0,0.8,0.8,0.6c0.1,0,0.3,0,0.3-0.3C591.3,375.3,591.3,374.9,591.3,374.5z M589,374.4c0-0.3,0-0.5,0-0.8
		c0-0.6,0-0.6-0.6-0.6c-0.3,0-0.4,0-0.4,0.3c0,0.6,0,1.3,0,2.1s0,0.8,0.8,0.8c0.1,0,0.3,0,0.3-0.3C589,375.3,589,374.9,589,374.4z
		 M622.6,384.1c-0.5,0-1,0-1.6,0c-0.1,0-0.1,0.1-0.1,0.3c0,0.5,0,1,0,1.4c0,0.1,0.1,0.3,0.3,0.3c0.4,0,0.6,0,1,0
		c0.1,0,0.3,0,0.3-0.1C622.5,385.1,622.5,384.6,622.6,384.1z M592.6,374.4c0,0.3,0,0.6,0,0.9c0,0.6,0,0.6,0.6,0.6
		c0.3,0,0.3,0,0.3-0.3c0-0.6,0-1.4,0-2.1c0-0.8,0.1-0.6-0.6-0.6c-0.3,0-0.3,0-0.3,0.3C592.6,373.6,592.6,374,592.6,374.4z
		 M585.7,374.4c0,0.4,0,0.9,0,1.3c0,0.1,0,0.3,0.3,0.3c0.1,0,0.3,0,0.5,0c0.3,0,0.3,0,0.3-0.3c0-0.6,0-1.4,0-2.1
		c0-0.8,0-0.8-0.6-0.6c-0.1,0-0.3,0-0.3,0.3C585.7,373.6,585.7,374,585.7,374.4z M622.7,381.9c-0.3,0.3-0.5,0.5-0.5,0.8
		c0.1,0,0.1,0,0.1,0c0.3,0,0.3,0,0.4-0.3C622.7,382.3,622.7,382,622.7,381.9z"/>
	<path fill="#F07E2F" d="M599.8,417.2c2.6,0,5.3,0,7.9,0c0.5,0,1,0,1.6,0.1c1.7,0.4,2.6,1.9,2.3,3.6c-0.3,1.4-1.3,2.3-2.7,2.6
		c-0.4,0-0.6,0.1-1,0.1c-5.2,0-10.5,0-15.7,0c-0.6,0-1.3,0-2.1-0.1c-1.6-0.4-2.5-1.7-2.5-3.2c0.1-1.6,1.2-2.7,2.7-3
		c0.3,0,0.6-0.1,1-0.1C594.4,417.2,597.1,417.2,599.8,417.2L599.8,417.2z M599.7,418.6C599.7,418.6,599.7,418.8,599.7,418.6
		c-2.7,0-5.4,0-8.3,0c-0.3,0-0.4,0-0.6,0c-0.8,0.1-1.3,0.6-1.4,1.4c-0.1,0.8,0.1,1.4,0.9,1.7c0.1,0.1,0.3,0.1,0.5,0.1
		c0.4,0.1,0.6,0.1,1,0.1c5.3,0,10.7,0,16,0c0.3,0,0.4,0,0.6,0c0.4,0,0.8-0.1,1.2-0.4c0.5-0.4,0.8-0.9,0.8-1.6s-0.4-1-0.9-1.3
		c-0.3-0.1-0.6-0.3-0.9-0.3c-0.9,0-1.7,0-2.6,0C603.8,418.6,601.8,418.6,599.7,418.6z"/>
	<path fill="#F07E2F" d="M574.5,399.1c-0.3,0.6-0.5,1.2-1,1.6c-2.5,1.7-4.8,3.4-7.2,5c-0.3,0.1-0.4,0.3-0.6,0.4
		c-0.1,0-0.3,0.1-0.4,0.1c-0.1-0.1-0.4-0.1-0.5-0.3c-0.1-0.1,0-0.3,0-0.3c0-0.3,0.3-0.5,0.5-0.6c0.9-0.6,1.9-1.4,2.8-2.1
		c1.6-1.2,3.2-2.2,4.8-3.4C573.3,399.2,573.8,399.1,574.5,399.1z"/>
	<path fill="#F07E2F" d="M623.3,345.5c0,0.3,0,0.4,0,0.5c0,0.3,0,0.5-0.3,0.8c-1.6,2.6-3.1,5-4.7,7.6c-0.3,0.4-0.5,0.8-0.8,1.2
		l-0.1,0.1c-0.3,0.1-0.5,0-0.5-0.3c-0.1-0.5,0-0.9,0.3-1.4c0.8-1.3,1.6-2.6,2.3-3.8c0.8-1.3,1.6-2.6,2.3-3.9
		C622.2,346,622.6,345.8,623.3,345.5z"/>
	<path fill="#F07E2F" d="M627.3,368.6c0.1-0.1,0.1-0.4,0.3-0.5c0.1-0.3,0.4-0.5,0.6-0.6c2.3-1.3,4.8-2.6,7.1-3.8
		c0.4-0.3,0.9-0.4,1.3-0.6c0.4-0.3,0.9-0.1,1.3,0c0.1,0,0.1,0.4,0.1,0.5c-0.3,0.3-0.4,0.5-0.8,0.6c-2.8,1.6-5.7,3-8.5,4.5
		c-0.3,0.1-0.4,0.1-0.6,0.1C627.7,368.7,627.5,368.7,627.3,368.6z"/>
	<path fill="#F07E2F" d="M582.9,355.8c-0.3-0.1-0.4-0.1-0.5-0.1c-0.3-0.1-0.5-0.3-0.6-0.5c-1.2-1.9-2.3-3.9-3.5-5.7
		c-0.5-0.8-0.9-1.6-1.4-2.3c-0.3-0.4-0.3-0.9-0.3-1.3c0-0.1,0.4-0.3,0.5-0.1c0.3,0.3,0.5,0.4,0.8,0.6c1.6,2.5,3,4.9,4.5,7.5
		c0.1,0.3,0.3,0.5,0.4,0.6c0.3,0.3,0.3,0.6,0.3,0.9C582.9,355.4,582.9,355.5,582.9,355.8z"/>
	<path fill="#F07E2F" d="M572.1,368.7c-0.3,0-0.5,0-0.8-0.1c-2.7-1.3-5.3-2.7-8-4.1c-0.1-0.1-0.3-0.1-0.4-0.3
		c-0.4-0.1-0.6-0.5-0.8-0.9c0-0.1,0-0.1,0.1-0.3c0.4-0.1,0.8-0.1,1.2,0.1c2.8,1.4,5.7,3,8.5,4.4c0.3,0.1,0.5,0.3,0.6,0.5l0.1,0.1
		c0.1,0.3,0,0.4-0.4,0.4C572.4,368.7,572.3,368.7,572.1,368.7z"/>
	<path fill="#F07E2F" d="M625.3,399.1C625.5,399.1,625.5,399.1,625.3,399.1c0.6-0.1,1.2,0,1.7,0.4c2.6,1.8,5,3.5,7.6,5.3
		c0.3,0.1,0.4,0.4,0.6,0.6c0.1,0.1,0.1,0.3,0.1,0.4c0,0.1-0.1,0.3-0.3,0.3c-0.5,0-0.9-0.1-1.4-0.4c-2.6-1.7-5-3.5-7.5-5.3
		C625.7,400.1,625.5,399.6,625.3,399.1z"/>
	<path fill="#F07E2F" d="M597,388.5c0,0.6,0,1.3,0,1.8c0,0.3,0,0.3-0.3,0.3c-0.9,0-1.7,0-2.6,0c-0.4,0-0.4,0-0.4-0.4
		c0-1.3,0-2.5,0-3.8c0-0.3,0-0.3,0.4-0.3c0.9,0,1.7,0,2.6,0c0.3,0,0.4,0,0.4,0.4C597,387.3,597,387.8,597,388.5z"/>
	<path fill="#F07E2F" d="M602.4,402c0,0.6,0,1.3,0,1.9c0,0.3,0,0.3-0.3,0.3c-0.9,0-1.8,0-2.7,0c-0.1,0-0.3-0.1-0.3-0.3
		c0-1.3,0-2.6,0-3.9c0-0.1,0-0.3,0.3-0.3c0.9,0,1.8,0,2.7,0c0.1,0,0.3,0,0.3,0.3C602.4,400.7,602.4,401.3,602.4,402z"/>
	<path fill="#F07E2F" d="M599.3,408.7c0-0.6,0-1.3,0-1.9c0-0.3,0-0.3,0.3-0.3c0.9,0,1.7,0,2.6,0c0.3,0,0.3,0,0.3,0.3
		c0,1.3,0,2.6,0,3.9c0,0.3,0,0.3-0.3,0.3c-0.9,0-1.8,0-2.7,0c-0.3,0-0.3,0-0.3-0.3C599.3,409.8,599.3,409.3,599.3,408.7z"/>
	<path fill="#F07E2F" d="M597,402c0,0.6,0,1.3,0,1.8c0,0.3,0,0.3-0.3,0.3c-0.9,0-1.7,0-2.6,0c-0.3,0-0.3,0-0.3-0.3
		c0-1.3,0-2.6,0-3.9c0-0.1,0-0.3,0.3-0.3c0.9,0,1.8,0,2.7,0c0.3,0,0.3,0.1,0.3,0.3C597,400.7,597,401.3,597,402z"/>
	<path fill="#F07E2F" d="M597,395.2c0,0.6,0,1.3,0,1.9c0,0.3,0,0.3-0.3,0.3c-0.9,0-1.7,0-2.6,0c-0.3,0-0.3,0-0.3-0.3
		c0-1.3,0-2.6,0-3.9c0-0.3,0.1-0.3,0.3-0.3c0.9,0,1.8,0,2.7,0c0.3,0,0.3,0,0.3,0.3C597,393.9,597,394.6,597,395.2z"/>
	<path fill="#F07E2F" d="M591.6,395.2c0,0.6,0,1.3,0,1.9c0,0.3,0,0.3-0.3,0.3c-0.9,0-1.7,0-2.6,0c-0.3,0-0.3,0-0.3-0.3
		c0-1.3,0-2.6,0-3.9c0-0.3,0.1-0.3,0.3-0.3c0.9,0,1.8,0,2.7,0c0.3,0,0.3,0,0.3,0.3C591.6,393.9,591.6,394.6,591.6,395.2z"/>
	<path fill="#F07E2F" d="M591.6,388.5c0,0.6,0,1.3,0,1.9c0,0.3,0,0.3-0.3,0.3c-0.9,0-1.7,0-2.6,0c-0.3,0-0.3,0-0.3-0.3
		c0-1.3,0-2.5,0-3.8c0-0.3,0-0.3,0.3-0.3c0.9,0,1.7,0,2.6,0c0.3,0,0.3,0,0.3,0.4C591.6,387.3,591.6,387.8,591.6,388.5z"/>
	<path fill="#F07E2F" d="M597.1,408.7c0,0.6,0,1.3,0,1.9c0,0.3-0.1,0.3-0.3,0.3c-0.9,0-1.8,0-2.6,0c-0.3,0-0.3-0.1-0.3-0.3
		c0-1.3,0-2.6,0-3.9c0-0.1,0.1-0.3,0.3-0.3c0.9,0,1.8,0,2.7,0c0.1,0,0.3,0.1,0.3,0.3C597,407.4,597.1,408,597.1,408.7z"/>
	<path fill="#F07E2F" d="M588.3,402c0-0.6,0-1.3,0-1.9c0-0.3,0-0.3,0.3-0.3c0.9,0,1.8,0,2.7,0c0.1,0,0.3,0,0.3,0.3
		c0,1.3,0,2.6,0,3.9c0,0.3,0,0.3-0.3,0.3c-0.9,0-1.7,0-2.6,0c-0.3,0-0.3,0-0.3-0.3C588.3,403.2,588.3,402.6,588.3,402z"/>
	<path fill="#F07E2F" d="M602.4,388.5c0,0.6,0,1.3,0,1.9c0,0.3-0.1,0.3-0.3,0.3c-0.9,0-1.7,0-2.6,0c-0.3,0-0.3,0-0.3-0.3
		c0-1.3,0-2.6,0-3.8c0-0.3,0-0.3,0.3-0.3c0.9,0,1.7,0,2.6,0c0.3,0,0.3,0.1,0.3,0.3C602.4,387.2,602.4,387.8,602.4,388.5z"/>
	<path fill="#F07E2F" d="M602.4,395.2c0,0.6,0,1.3,0,1.9c0,0.3,0,0.3-0.3,0.3c-0.9,0-1.7,0-2.6,0c-0.3,0-0.3,0-0.3-0.3
		c0-1.3,0-2.6,0-3.9c0-0.1,0-0.3,0.3-0.3c0.9,0,1.8,0,2.7,0c0.3,0,0.3,0,0.3,0.3C602.4,393.9,602.4,394.6,602.4,395.2z"/>
	<path fill="#F07E2F" d="M607.9,402c0-0.6,0-1.3,0-1.9c0-0.3,0-0.3,0.3-0.3c1,0,1.9,0,3,0c0.3,0,0.3,0,0.3,0.4c0,0.3,0,0.4,0,0.6
		c0,0.4,0,0.4-0.4,0.4c-0.5,0-1,0-1.6,0c-0.3,0-0.4,0-0.4,0.3c0,0.8,0,1.6,0,2.5c0,0.4,0,0.4-0.4,0.4c-0.3,0-0.4,0-0.6,0
		s-0.3,0-0.3-0.3C607.9,403.2,607.9,402.6,607.9,402z"/>
</g>
<circle fill="none" stroke="#F07E2F" stroke-miterlimit="10" cx="600.2" cy="387.1" r="60.4"/>
</svg>
