<?xml version="1.0" encoding="utf-8"?>
<!-- Generator: Adobe Illustrator 18.1.1, SVG Export Plug-In . SVG Version: 6.00 Build 0)  -->
<!DOCTYPE svg PUBLIC "-//W3C//DTD SVG 1.1//EN" "http://www.w3.org/Graphics/SVG/1.1/DTD/svg11.dtd">
<svg version="1.1" id="Layer_1" xmlns="http://www.w3.org/2000/svg" xmlns:xlink="http://www.w3.org/1999/xlink" x="0px" y="0px"
	 viewBox="0 0 792 612" enable-background="new 0 0 792 612" xml:space="preserve">
<g>
	<path fill="#F07E2F" d="M386,337c-0.1-0.1-0.2-0.1-0.3-0.1c-1-0.2-1.7-0.7-2.3-1.5c-0.2-0.2-0.3-0.4-0.4-0.6
		c-0.3-0.6-0.8-0.9-1.4-1.2c-1.7-0.6-2.7-1.8-3.1-3.5c-0.1-0.5-0.1-1-0.1-1.5c0-0.2,0-0.2,0.3-0.2c0.6,0,1.2,0,1.8,0
		c1.1,0,2.2,0,3.3,0c3.3,0,6.6,0,9.9,0c0.2,0,0.3,0,0.5,0c0.4,0.1,0.5,0.3,0.5,0.7c0,0.3-0.1,0.7-0.1,1c-0.4,1.8-1.5,2.9-3.2,3.6
		c-0.6,0.2-1,0.6-1.3,1.1c-0.5,0.8-1.1,1.4-1.9,1.8c-0.3,0.2-0.7,0.2-1.1,0.3c-0.1,0-0.1,0-0.2,0.1C386.7,337,386.4,337,386,337z
		 M379.7,329.6c0,0.1,0,0.1,0,0.2c0.2,1.6,1.5,2.9,3.1,3c1,0.1,2.1,0.1,3.1,0.1c1.3,0,2.5,0,3.8-0.1c0.4,0,0.7,0,1.1-0.1
		c1.4-0.3,2.4-1.5,2.6-2.7c0-0.4,0.1-0.4-0.3-0.4c-4.3,0-8.7,0-13,0C380,329.6,379.9,329.6,379.7,329.6z M384,334.1
		c0.4,1.1,1.3,1.8,2.9,1.7c1-0.1,2-0.8,2.2-1.7C387.4,334.1,385.7,334.1,384,334.1z"/>
	<path fill="#F07E2F" d="M354,296.5c0.1,0,0.2-0.1,0.3-0.2c0.2-0.2,0.5-0.3,0.9-0.3c1.8-0.1,3.5-0.2,5.3-0.3c0.6,0,1.2-0.1,1.7-0.1
		c0.4,0,0.8,0.1,1.1,0.5c-0.2,0.3-0.4,0.5-0.8,0.5c-0.7,0-1.4,0.1-2.2,0.1c-1.1,0.1-2.3,0.1-3.4,0.2c-0.6,0-1.3,0.1-1.9,0.1
		c-0.3,0-0.5-0.1-0.7-0.3C354.2,296.7,354.1,296.6,354,296.5C354,296.5,354,296.5,354,296.5z"/>
	<path fill="#F07E2F" d="M419.3,296.6c-0.1,0-0.2,0.1-0.3,0.1c-0.3,0.2-0.7,0.3-1.1,0.2c-1.3-0.1-2.6-0.1-3.9-0.2
		c-0.9-0.1-1.8-0.1-2.7-0.2c-0.3,0-0.5-0.1-0.8-0.3c-0.1-0.1-0.2-0.2-0.4-0.3c0.4-0.2,0.8-0.4,1.2-0.4c0.7,0,1.3,0.1,2,0.1
		c1,0,1.9,0.1,2.9,0.2c0.7,0,1.3,0.1,2,0.1c0.3,0,0.5,0.2,0.8,0.3c0.1,0.1,0.2,0.2,0.4,0.2C419.3,296.5,419.3,296.6,419.3,296.6z"/>
	<path fill="#F07E2F" d="M387.3,262.6c0,0.1,0.2,0.2,0.3,0.3c0.1,0.2,0.2,0.3,0.2,0.5c0,2.1,0,4.2,0,6.3c0,0.4,0,0.7,0,1.1
		c0,0.3-0.1,0.5-0.3,0.7c-0.1,0.1-0.1,0.1-0.2,0.2c-0.3-0.3-0.5-0.6-0.5-1c0-2.4,0-4.8,0-7.2c0-0.3,0.1-0.6,0.2-0.8
		C387.1,262.7,387.2,262.7,387.3,262.6C387.2,262.6,387.3,262.6,387.3,262.6z"/>
	<path fill="#F07E2F" d="M386.6,321.2c-2.8,0-5.7,0-8.5,0c-0.5,0-0.4,0.1-0.4-0.4c0-1.3,0-2.7,0-4c0-0.7-0.1-1.4-0.2-2
		c-0.1-0.3-0.2-0.7-0.4-1c-1.2-1.9-2.5-3.8-3.8-5.7c-0.5-0.7-1-1.3-1.4-1.9c-1.9-2.5-3.1-5.3-3.7-8.3c-0.3-1.8-0.4-3.7-0.2-5.5
		c0.7-5.4,3.4-9.7,7.7-13c1.9-1.4,4.1-2.5,6.4-3.1c1.9-0.5,3.8-0.6,5.8-0.5c4.2,0.3,7.9,1.9,11.1,4.6c3.1,2.6,5.1,5.9,6,9.9
		c0.3,1.4,0.4,2.7,0.5,4.1c0,2.6-0.4,5.1-1.5,7.6c-0.6,1.5-1.4,2.9-2.4,4.2c-1.7,2.2-3.3,4.6-4.8,6.9c-0.2,0.3-0.3,0.5-0.5,0.8
		c-0.5,0.6-0.6,1.3-0.6,2.1c0,1.6,0,3.2,0,4.8c0,0.1,0,0.1,0,0.2c0,0.2-0.1,0.2-0.2,0.2c-0.2,0-0.5,0-0.7,0
		C391.9,321.2,389.2,321.2,386.6,321.2z M384.6,288.1C384.6,288.1,384.6,288.1,384.6,288.1c-0.3,0.1-0.6,0.1-0.9,0.1
		c-0.2,0-0.5,0-0.7,0c-0.1,0-0.2,0-0.1,0.1c0,0.1,0,0.1,0,0.2c0,0.9,0,1.8,0,2.7c0,0.3,0,0.3-0.3,0.3c-0.4,0-0.8,0-1.3,0
		c-0.1,0-0.2,0-0.2,0.2c0,0.4,0,0.8,0,1.2c0,0.1,0,0.2,0.2,0.2c0,0,0.1,0,0.2,0c1.8,0,3.6,0,5.4,0c0.1,0,0.1,0,0.2,0
		c0.1,0,0.2-0.1,0.2-0.2c0-0.1,0-0.1,0-0.2c0-1.2,0-2.4,0-3.7c0-1.3,0-2.6,0-4c0-0.2,0-0.3,0.2-0.3c0.4,0,0.8,0,1.3,0
		c0.4,0,0.4,0,0.4-0.3c0-0.4,0-0.8,0-1.3c0-0.1,0-0.2,0.2-0.2c0.1,0,0.2,0,0.2,0c2.6,0,5.2,0,7.7,0c0.5,0,1.1,0,1.6,0
		c0.2,0,0.2,0,0.2,0.2c0,0.4,0,0.8,0,1.2c0,0.3,0,0.3,0.4,0.3c0.3,0,0.7,0,1,0c0.4,0,0.4,0,0.4,0.4c0,4.2,0,8.4,0,12.5
		c0,0.1,0,0.2,0,0.3c0,0.1,0,0.1,0.1,0.1c0.3,0,0.6,0,0.9,0c0.1,0,0.2,0,0.2-0.2c0-0.3,0-0.5,0-0.8c0-0.4,0-0.9,0-1.3
		c0-0.2,0.1-0.2,0.2-0.2c0.2,0,0.3,0,0.5,0c0.2,0,0.2,0,0.3-0.2c0.2-0.7,0.6-1.3,1.2-1.7c0.2-0.1,0.2-0.2,0.2-0.4
		c-0.1-1.1-0.2-2.2-0.5-3.2c-1.2-4.5-3.8-8-7.7-10.5c-2.6-1.7-5.4-2.6-8.4-2.7c-2-0.1-4,0.1-5.9,0.7c-3.5,1-6.4,2.9-8.8,5.8
		c-2.4,2.9-3.7,6.2-4,9.9c-0.1,1.7,0,3.3,0.3,4.9c0.1,0.2,0.1,0.2,0.3,0.2c0.6,0,1.1,0,1.7,0c1,0,2.1,0,3.1,0c0.2,0,0.2,0,0.2-0.2
		c0-0.5,0-1,0-1.5c0-0.2,0-0.2-0.2-0.2c-0.4,0-0.8,0-1.2,0c-0.4,0-0.4,0.1-0.4-0.4c0-0.9,0-1.8,0-2.7c0-0.4,0-0.3,0.3-0.3
		c1,0,2,0,3,0c0.2,0,0.2,0,0.2-0.3c0-0.4,0-0.7,0-1.1c0-0.2-0.1-0.2-0.2-0.2c-0.4,0-0.8,0-1.3,0c-0.3,0-0.3,0-0.3-0.3
		c0-0.9,0-1.8,0-2.7c0-0.5,0-0.5-0.5-0.5c-0.4,0-0.9,0-1.3,0c0.1-0.1,0.1-0.1,0.1-0.1c1.9-1.1,3.7-2.1,5.6-3.2c0.1-0.1,0.2,0,0.4,0
		c1.1,0.6,2.2,1.3,3.4,1.9C383,287.2,383.8,287.7,384.6,288.1z M390.7,308.4c0-3.8,0-7.6,0-11.4c0-0.1,0-0.2,0-0.2
		c0-0.1-0.1-0.2-0.2-0.2c0,0-0.1,0-0.2,0c-4.8,0-9.5,0-14.3,0c-0.1,0-0.1,0-0.2,0c-0.1,0-0.1,0-0.1,0.1c0,0.1,0,0.1,0,0.2
		c0,4.3,0,8.5,0,12.8c0,0.2,0,0.3,0.1,0.4c0.5,0.8,1.1,1.5,1.6,2.3c0.3,0.5,0.7,1,0.9,1.5c0.1,0.2,0.2,0.2,0.4,0.2
		c0.4,0,0.9,0,1.3,0c0.2,0,0.2,0,0.2,0.2c0,1,0,2,0,3c0,0.2-0.1,0.2-0.2,0.2c-0.4,0-0.7,0-1.1,0c-0.2,0-0.2,0-0.2,0.2
		c0,0.4,0,0.9,0,1.3c0,0.2,0,0.2,0.3,0.2c0.3,0,0.6,0,1,0c0.3,0,0.3,0,0.3,0.2c0,0.1,0,0.3,0,0.4c0,0.1,0,0.1,0.1,0.1
		c0.5,0,1,0,1.5,0c0.1,0,0.1,0,0.1-0.1c0-0.2,0-0.3,0-0.5c0-0.1,0-0.2,0.2-0.2c0.1,0,0.2,0,0.3,0c0.6,0,1.1,0,1.7,0
		c0.3,0,0.3,0,0.3,0.3c0,0.1,0,0.3,0,0.4c0,0.1,0,0.1,0.1,0.1c0.5,0,1,0,1.5,0c0.1,0,0.2,0,0.2-0.2c0-0.2,0-0.3,0-0.5
		c0-0.1,0-0.2,0.2-0.2c0.7,0,1.4,0,2.1,0c0.1,0,0.2,0.1,0.2,0.2c0,0.2,0,0.3,0,0.5c0,0.2,0.1,0.2,0.2,0.2c0.5,0,1,0,1.5,0
		c0.3,0,0.3,0,0.3-0.3c0-0.1,0-0.1,0-0.2C390.7,315.9,390.7,312.1,390.7,308.4z M399.9,306.4C399.9,306.4,399.8,306.4,399.9,306.4
		c-1.2-0.6-2.3-1.2-3.5-1.7c-0.1-0.1-0.2,0-0.4,0c-0.6,0.3-1.1,0.6-1.7,0.8c-0.8,0.4-1.6,0.8-2.4,1.2c-0.2,0.1-0.2,0.2-0.2,0.3
		c0,0,0,0.1,0,0.1c0,4.2,0,8.3,0,12.5c0,0.1,0,0.1,0,0.2c0,0.2,0.1,0.2,0.2,0.2c0.6,0,1.1,0,1.7,0c0.3,0,0.5-0.2,0.6-0.4
		c0.1-0.2,0.1-0.3,0.1-0.5c0-0.4,0-0.8,0-1.3c0-0.8,0-1.6,0.1-2.4c0.1-0.4,0.1-0.4-0.3-0.4c-0.2,0-0.2,0-0.2,0.2c0,0.1,0,0.1,0,0.2
		c0,0.6,0,1.2,0,1.8c0,0.3,0,0.3-0.3,0.3c-0.2,0-0.3,0-0.5,0c-0.2,0-0.2,0-0.2-0.2c0-1,0-2,0-3c0-0.2,0-0.2,0.3-0.2c0.5,0,1,0,1.5,0
		c0.1,0,0.2,0,0.3-0.2c0.1-0.2,0.2-0.3,0.3-0.5c0.5-0.8,1.1-1.6,1.6-2.4c0.1-0.2,0.2-0.3,0.1-0.5c0-0.2,0-0.5,0-0.7
		c0-0.3,0-0.6,0-0.9c0.3-0.1,0.6,0,0.9,0c0.1,0,0.1,0,0.2,0c0.2,0,0.3-0.1,0.4-0.2c0.5-0.7,1-1.4,1.4-2
		C399.8,306.6,399.9,306.5,399.9,306.4z M383.2,295.5c3,0,5.9,0,8.9,0c0.1,0,0.1,0,0.2,0c0.3,0,0.3,0,0.3-0.2c0-0.3,0-0.5,0-0.8
		c0-0.4,0-0.4-0.4-0.4c-5.9,0-11.9,0-17.8,0c0,0,0,0,0,0c-0.4,0-0.3,0-0.3,0.3c0,0.2,0,0.5,0,0.7c0,0.4,0,0.4,0.4,0.4
		C377.2,295.5,380.2,295.5,383.2,295.5z M393.5,304.8c0.3-0.1,0.5-0.2,0.7-0.3c0.1,0,0.1-0.1,0.1-0.1c0-0.1,0-0.2,0-0.3
		c0-5.9,0-11.7,0-17.6c0-0.6,0-0.6-0.6-0.6c0,0,0,0,0,0c-0.1,0-0.1,0-0.1,0.1c0,0.1,0,0.1,0,0.2c0,6.1,0,12.1,0,18.2
		C393.5,304.6,393.5,304.7,393.5,304.8z M395.3,303.9c0.2-0.1,0.4-0.2,0.6-0.3c0.1-0.1,0.2-0.2,0.2-0.3c0,0,0-0.1,0-0.2
		c0-5.6,0-11.2,0-16.9c0-0.4,0-0.4-0.4-0.4c-0.4,0-0.4,0-0.4,0.4c0,5.8,0,11.5,0,17.3C395.3,303.7,395.3,303.8,395.3,303.9z
		 M399.6,305.1c0-0.1,0-0.2,0-0.3c0-6.2,0-12.3,0-18.5c0-0.1,0-0.2,0-0.2c0-0.1,0-0.2-0.1-0.2c-0.1,0-0.1,0-0.2,0
		c-0.4,0-0.4,0-0.4,0.4c0,6,0,11.9,0,17.9c0,0.2-0.1,0.5,0,0.6C399.1,304.9,399.3,305,399.6,305.1
		C399.5,305.1,399.5,305.1,399.6,305.1z M397.9,304.2c0-0.1,0-0.2,0-0.3c0-5.9,0-11.7,0-17.6c0-0.1,0-0.1,0-0.2c0-0.1,0-0.2-0.2-0.2
		c-0.1,0-0.1,0-0.2,0c-0.5,0-0.4-0.1-0.4,0.4c0,5.6,0,11.2,0,16.8c0,0.2-0.1,0.5,0,0.7C397.3,304.1,397.6,304.1,397.9,304.2
		C397.8,304.2,397.8,304.2,397.9,304.2z M400.7,305.4c0.8-1.1,1.5-2.2,2.1-3.5c-0.3,0-0.5,0-0.7,0c-0.1,0-0.2,0-0.2-0.2
		c0-0.2,0-0.4,0-0.6c0-0.2,0-0.2,0.2-0.2c0.3,0,0.7,0,1,0c0.1,0,0.2,0,0.2-0.1c0.2-0.5,0.3-0.9,0.4-1.4c0,0,0-0.1,0-0.1
		c-0.4,0-0.7,0-1.1,0c-0.5,0-1.1,0-1.6,0c-0.2,0-0.2,0-0.2,0.3c0,0,0,0,0,0.1c0,1.9,0,3.7,0,5.6
		C400.6,305.2,400.6,305.3,400.7,305.4z M374.7,301.6c0-0.6,0-1.2,0-1.9c0-0.2,0-0.2-0.2-0.2c-0.4,0-0.8,0-1.2,0
		c-0.2,0-0.2,0-0.2,0.3c0,0.6,0,1.3,0,1.9c0,0.6,0,1.1,0,1.7c0,0.2,0,0.2,0.2,0.2c0.4,0,0.8,0,1.2,0c0.2,0,0.3,0,0.3-0.2
		C374.7,302.8,374.7,302.2,374.7,301.6z M391.8,305.7c0.2,0,0.3-0.1,0.4-0.2c0.2-0.1,0.3-0.2,0.3-0.5c0-2.7,0-5.3,0-8
		c0-0.5,0-0.5-0.5-0.5c-0.3,0-0.3,0-0.3,0.3c0,0,0,0,0,0.1c0,2.8,0,5.7,0,8.5C391.7,305.5,391.7,305.6,391.8,305.7z M393.9,284.1
		c-1.2,0-2.4,0-3.5,0c-0.5,0-0.5,0-0.5,0.5c0,0.3,0,0.3,0.3,0.3c2.4,0,4.9,0,7.3,0c0.1,0,0.1,0,0.2,0c0.1,0,0.1,0,0.1-0.1
		c0-0.2,0-0.3,0-0.5c0-0.1-0.1-0.2-0.2-0.2c-0.1,0-0.1,0-0.2,0C396.3,284.1,395.1,284.1,393.9,284.1z M388.9,289.5
		c0-1.1,0-2.2,0-3.2c0-0.1,0-0.1,0-0.2c0-0.1-0.1-0.1-0.1-0.1c-0.1,0-0.3,0-0.4,0c-0.3,0-0.3,0-0.3,0.3c0,0.1,0,0.1,0,0.2
		c0,2.1,0,4.1,0,6.2c0,0.2-0.1,0.4,0,0.5c0.1,0.1,0.3,0,0.5,0c0.3,0,0.3,0,0.3-0.3C388.9,291.7,388.9,290.6,388.9,289.5z
		 M371.9,301.6c0-0.6,0-1.2,0-1.9c0-0.2-0.1-0.2-0.2-0.2c-0.5,0-0.9,0-1.4,0c-0.2,0-0.2,0.1-0.2,0.2c0,0.4,0,0.8,0,1.2
		c0,0.1,0,0.2,0.1,0.3c0.3,0.7,0.6,1.4,1,2.1c0.1,0.2,0.3,0.3,0.5,0.3c0.2,0,0.2,0,0.2-0.2C371.9,302.8,371.9,302.2,371.9,301.6z
		 M392.5,289.5c0-1,0-2,0-3c0-0.6,0-0.6-0.6-0.5c-0.1,0-0.2,0.1-0.2,0.2c0,0.1,0,0.1,0,0.2c0,2.1,0,4.1,0,6.2c0,0.6,0,0.6,0.6,0.6
		c0,0,0,0,0,0c0.1,0,0.1,0,0.1-0.1c0-0.1,0-0.1,0-0.2C392.5,291.7,392.5,290.6,392.5,289.5z M390.7,289.5c0-1,0-2.1,0-3.1
		c0-0.6,0.1-0.5-0.5-0.5c-0.3,0-0.3,0-0.3,0.3c0,0,0,0.1,0,0.1c0,2.2,0,4.3,0,6.5c0,0.1,0,0.1,0,0.2c0,0.1,0.1,0.2,0.2,0.2
		c0.2,0,0.3,0,0.5,0c0.1,0,0.2,0,0.1-0.1c0-0.1,0-0.1,0-0.2C390.7,291.7,390.7,290.6,390.7,289.5z M374.7,308.3c0-1.1,0-2.2,0-3.4
		c0-0.1,0-0.2-0.2-0.2c-0.4,0-0.9,0-1.3,0c-0.1,0-0.2,0.1-0.2,0.2c0,0.3,0,0.6,0,0.9c0,0.1,0,0.2,0.1,0.3c0.5,0.7,1,1.3,1.4,2
		C374.5,308.2,374.6,308.2,374.7,308.3z M378.7,293.1c0.4,0,0.8,0,1.1,0c0.1,0,0.2,0,0.2-0.2c0-0.4,0-0.8,0-1.2
		c0-0.1-0.1-0.2-0.2-0.2c-0.7,0-1.5,0-2.2,0c-0.1,0-0.2,0-0.2,0.2c0,0.4,0,0.8,0,1.2c0,0.2,0,0.2,0.2,0.2
		C378,293.1,378.4,293.1,378.7,293.1z M380.7,287.1C380.7,287.1,380.7,287.1,380.7,287.1c-0.6-0.4-1.2-0.8-1.8-1.1
		c-0.1-0.1-0.2,0-0.3,0c-0.3,0.2-0.7,0.4-1,0.6c-0.3,0.1-0.5,0.3-0.8,0.5C378.1,287.1,379.4,287.1,380.7,287.1z M380,289.4
		c0-0.2,0-0.4,0-0.7c0-0.6,0-0.6-0.6-0.5c-0.2,0-0.2,0-0.2,0.2c0,0.5,0,1.1,0,1.6c0,0.6,0,0.6,0.6,0.5c0.1,0,0.2,0,0.2-0.2
		C380,290,380,289.7,380,289.4z M378.2,289.3c0-0.2,0-0.4,0-0.6c0-0.5,0-0.5-0.5-0.5c-0.2,0-0.3,0-0.3,0.2c0,0.5,0,1,0,1.6
		c0,0.6,0,0.6,0.6,0.6c0.1,0,0.2,0,0.2-0.2C378.2,290,378.2,289.7,378.2,289.3z M404.2,296.8c-0.4,0-0.8,0-1.2,0
		c-0.1,0-0.1,0.1-0.1,0.2c0,0.4,0,0.8,0,1.1c0,0.1,0.1,0.2,0.2,0.2c0.3,0,0.5,0,0.8,0c0.1,0,0.2,0,0.2-0.1
		C404.1,297.6,404.1,297.2,404.2,296.8z M381,289.3c0,0.2,0,0.5,0,0.7c0,0.5,0,0.5,0.5,0.5c0.2,0,0.2,0,0.2-0.2c0-0.5,0-1.1,0-1.6
		c0-0.6,0.1-0.5-0.5-0.5c-0.2,0-0.2,0-0.2,0.2C381,288.7,381,289,381,289.3z M375.7,289.3c0,0.3,0,0.7,0,1c0,0.1,0,0.2,0.2,0.2
		c0.1,0,0.2,0,0.4,0c0.2,0,0.2,0,0.2-0.2c0-0.5,0-1.1,0-1.6c0-0.6,0-0.6-0.5-0.5c-0.1,0-0.2,0-0.2,0.2
		C375.7,288.7,375.7,289,375.7,289.3z M404.3,295.1c-0.2,0.2-0.4,0.4-0.4,0.6c0.1,0,0.1,0,0.1,0c0.2,0,0.2,0,0.3-0.2
		C404.3,295.4,404.3,295.2,404.3,295.1z"/>
	<path fill="#F07E2F" d="M386.6,322.4c2,0,4.1,0,6.1,0c0.4,0,0.8,0,1.2,0.1c1.3,0.3,2,1.5,1.8,2.8c-0.2,1.1-1,1.8-2.1,2
		c-0.3,0-0.5,0.1-0.8,0.1c-4,0-8.1,0-12.1,0c-0.5,0-1,0-1.6-0.1c-1.2-0.3-1.9-1.3-1.9-2.5c0.1-1.2,0.9-2.1,2.1-2.3
		c0.2,0,0.5-0.1,0.8-0.1C382.4,322.4,384.5,322.4,386.6,322.4C386.6,322.4,386.6,322.4,386.6,322.4z M386.5,323.5
		C386.5,323.5,386.5,323.6,386.5,323.5c-2.1,0-4.2,0-6.4,0c-0.2,0-0.3,0-0.5,0c-0.6,0.1-1,0.5-1.1,1.1c-0.1,0.6,0.1,1.1,0.7,1.3
		c0.1,0.1,0.2,0.1,0.4,0.1c0.3,0.1,0.5,0.1,0.8,0.1c4.1,0,8.3,0,12.4,0c0.2,0,0.3,0,0.5,0c0.3,0,0.6-0.1,0.9-0.3
		c0.4-0.3,0.6-0.7,0.6-1.2c0-0.5-0.3-0.8-0.7-1c-0.2-0.1-0.5-0.2-0.7-0.2c-0.7,0-1.3,0-2,0C389.7,323.5,388.1,323.5,386.5,323.5z"/>
	<path fill="#F07E2F" d="M367,308.4c-0.2,0.5-0.4,0.9-0.8,1.2c-1.9,1.3-3.7,2.6-5.6,3.9c-0.2,0.1-0.3,0.2-0.5,0.3
		c-0.1,0-0.2,0.1-0.3,0.1c-0.1-0.1-0.3-0.1-0.4-0.2c-0.1-0.1,0-0.2,0-0.2c0-0.2,0.2-0.4,0.4-0.5c0.7-0.5,1.5-1.1,2.2-1.6
		c1.2-0.9,2.5-1.7,3.7-2.6C366.1,308.5,366.5,308.4,367,308.4z"/>
	<path fill="#F07E2F" d="M404.7,267c0,0.2,0,0.3,0,0.4c0,0.2,0,0.4-0.2,0.6c-1.2,2-2.4,3.9-3.6,5.9c-0.2,0.3-0.4,0.6-0.6,0.9
		c0,0-0.1,0.1-0.1,0.1c-0.2,0.1-0.4,0-0.4-0.2c-0.1-0.4,0-0.7,0.2-1.1c0.6-1,1.2-2,1.8-2.9c0.6-1,1.2-2,1.8-3
		C403.9,267.4,404.2,267.2,404.7,267z"/>
	<path fill="#F07E2F" d="M407.8,284.8c0.1-0.1,0.1-0.3,0.2-0.4c0.1-0.2,0.3-0.4,0.5-0.5c1.8-1,3.7-2,5.5-2.9c0.3-0.2,0.7-0.3,1-0.5
		c0.3-0.2,0.7-0.1,1,0c0.1,0,0.1,0.3,0.1,0.4c-0.2,0.2-0.3,0.4-0.6,0.5c-2.2,1.2-4.4,2.3-6.6,3.5c-0.2,0.1-0.3,0.1-0.5,0.1
		C408.1,284.9,408,284.9,407.8,284.8z"/>
	<path fill="#F07E2F" d="M373.5,274.9c-0.2-0.1-0.3-0.1-0.4-0.1c-0.2-0.1-0.4-0.2-0.5-0.4c-0.9-1.5-1.8-3-2.7-4.4
		c-0.4-0.6-0.7-1.2-1.1-1.8c-0.2-0.3-0.2-0.7-0.2-1c0-0.1,0.3-0.2,0.4-0.1c0.2,0.2,0.4,0.3,0.6,0.5c1.2,1.9,2.3,3.8,3.5,5.8
		c0.1,0.2,0.2,0.4,0.3,0.5c0.2,0.2,0.2,0.5,0.2,0.7C373.5,274.6,373.5,274.7,373.5,274.9z"/>
	<path fill="#F07E2F" d="M365.2,284.9c-0.2,0-0.4,0-0.6-0.1c-2.1-1-4.1-2.1-6.2-3.2c-0.1-0.1-0.2-0.1-0.3-0.2
		c-0.3-0.1-0.5-0.4-0.6-0.7c0-0.1,0-0.1,0.1-0.2c0.3-0.1,0.6-0.1,0.9,0.1c2.2,1.1,4.4,2.3,6.6,3.4c0.2,0.1,0.4,0.2,0.5,0.4
		c0,0,0.1,0.1,0.1,0.1c0.1,0.2,0,0.3-0.3,0.3C365.4,284.9,365.3,284.9,365.2,284.9z"/>
	<path fill="#F07E2F" d="M406.3,308.4C406.4,308.4,406.4,308.4,406.3,308.4c0.5-0.1,0.9,0,1.3,0.3c2,1.4,3.9,2.7,5.9,4.1
		c0.2,0.1,0.3,0.3,0.5,0.5c0.1,0.1,0.1,0.2,0.1,0.3c0,0.1-0.1,0.2-0.2,0.2c-0.4,0-0.7-0.1-1.1-0.3c-2-1.3-3.9-2.7-5.8-4.1
		C406.6,309.2,406.4,308.8,406.3,308.4z"/>
	<path fill="#F07E2F" d="M384.4,300.2c0,0.5,0,1,0,1.4c0,0.2,0,0.2-0.2,0.2c-0.7,0-1.3,0-2,0c-0.3,0-0.3,0-0.3-0.3c0-1,0-1.9,0-2.9
		c0-0.2,0-0.2,0.3-0.2c0.7,0,1.3,0,2,0c0.2,0,0.3,0,0.3,0.3C384.4,299.3,384.4,299.7,384.4,300.2z"/>
	<path fill="#F07E2F" d="M388.6,310.6c0,0.5,0,1,0,1.5c0,0.2,0,0.2-0.2,0.2c-0.7,0-1.4,0-2.1,0c-0.1,0-0.2-0.1-0.2-0.2c0-1,0-2,0-3
		c0-0.1,0-0.2,0.2-0.2c0.7,0,1.4,0,2.1,0c0.1,0,0.2,0,0.2,0.2C388.6,309.6,388.6,310.1,388.6,310.6z"/>
	<path fill="#F07E2F" d="M386.2,315.8c0-0.5,0-1,0-1.5c0-0.2,0-0.2,0.2-0.2c0.7,0,1.3,0,2,0c0.2,0,0.2,0,0.2,0.2c0,1,0,2,0,3
		c0,0.2,0,0.2-0.2,0.2c-0.7,0-1.4,0-2.1,0c-0.2,0-0.2,0-0.2-0.2C386.2,316.7,386.2,316.3,386.2,315.8z"/>
	<path fill="#F07E2F" d="M384.4,310.6c0,0.5,0,1,0,1.4c0,0.2,0,0.2-0.2,0.2c-0.7,0-1.3,0-2,0c-0.2,0-0.2,0-0.2-0.2c0-1,0-2,0-3
		c0-0.1,0-0.2,0.2-0.2c0.7,0,1.4,0,2.1,0c0.2,0,0.2,0.1,0.2,0.2C384.4,309.6,384.4,310.1,384.4,310.6z"/>
	<path fill="#F07E2F" d="M384.4,305.4c0,0.5,0,1,0,1.5c0,0.2,0,0.2-0.2,0.2c-0.7,0-1.3,0-2,0c-0.2,0-0.2,0-0.2-0.2c0-1,0-2,0-3
		c0-0.2,0.1-0.2,0.2-0.2c0.7,0,1.4,0,2.1,0c0.2,0,0.2,0,0.2,0.2C384.4,304.4,384.4,304.9,384.4,305.4z"/>
	<path fill="#F07E2F" d="M380.2,305.4c0,0.5,0,1,0,1.5c0,0.2,0,0.2-0.2,0.2c-0.7,0-1.3,0-2,0c-0.2,0-0.2,0-0.2-0.2c0-1,0-2,0-3
		c0-0.2,0.1-0.2,0.2-0.2c0.7,0,1.4,0,2.1,0c0.2,0,0.2,0,0.2,0.2C380.2,304.4,380.2,304.9,380.2,305.4z"/>
	<path fill="#F07E2F" d="M380.2,300.2c0,0.5,0,1,0,1.5c0,0.2,0,0.2-0.2,0.2c-0.7,0-1.3,0-2,0c-0.2,0-0.2,0-0.2-0.2c0-1,0-1.9,0-2.9
		c0-0.2,0-0.2,0.2-0.2c0.7,0,1.3,0,2,0c0.2,0,0.2,0,0.2,0.3C380.2,299.3,380.2,299.7,380.2,300.2z"/>
	<path fill="#F07E2F" d="M384.5,315.8c0,0.5,0,1,0,1.5c0,0.2-0.1,0.2-0.2,0.2c-0.7,0-1.4,0-2,0c-0.2,0-0.2-0.1-0.2-0.2c0-1,0-2,0-3
		c0-0.1,0.1-0.2,0.2-0.2c0.7,0,1.4,0,2.1,0c0.1,0,0.2,0.1,0.2,0.2C384.4,314.8,384.5,315.3,384.5,315.8z"/>
	<path fill="#F07E2F" d="M377.7,310.6c0-0.5,0-1,0-1.5c0-0.2,0-0.2,0.2-0.2c0.7,0,1.4,0,2.1,0c0.1,0,0.2,0,0.2,0.2c0,1,0,2,0,3
		c0,0.2,0,0.2-0.2,0.2c-0.7,0-1.3,0-2,0c-0.2,0-0.2,0-0.2-0.2C377.7,311.6,377.7,311.1,377.7,310.6z"/>
	<path fill="#F07E2F" d="M388.6,300.2c0,0.5,0,1,0,1.5c0,0.2-0.1,0.2-0.2,0.2c-0.7,0-1.3,0-2,0c-0.2,0-0.2,0-0.2-0.2c0-1,0-2,0-2.9
		c0-0.2,0-0.2,0.2-0.2c0.7,0,1.3,0,2,0c0.2,0,0.2,0.1,0.2,0.2C388.6,299.2,388.6,299.7,388.6,300.2z"/>
	<path fill="#F07E2F" d="M388.6,305.4c0,0.5,0,1,0,1.5c0,0.2,0,0.2-0.2,0.2c-0.7,0-1.3,0-2,0c-0.2,0-0.2,0-0.2-0.2c0-1,0-2,0-3
		c0-0.1,0-0.2,0.2-0.2c0.7,0,1.4,0,2.1,0c0.2,0,0.2,0,0.2,0.2C388.6,304.4,388.6,304.9,388.6,305.4z"/>
	<path fill="#F07E2F" d="M392.8,310.6c0-0.5,0-1,0-1.5c0-0.2,0-0.2,0.2-0.2c0.8,0,1.5,0,2.3,0c0.2,0,0.2,0,0.2,0.3
		c0,0.2,0,0.3,0,0.5c0,0.3,0,0.3-0.3,0.3c-0.4,0-0.8,0-1.2,0c-0.2,0-0.3,0-0.3,0.2c0,0.6,0,1.2,0,1.9c0,0.3,0,0.3-0.3,0.3
		c-0.2,0-0.3,0-0.5,0c-0.2,0-0.2,0-0.2-0.2C392.8,311.6,392.8,311.1,392.8,310.6z"/>
</g>
<circle fill="none" stroke="#F07E2F" stroke-miterlimit="10" cx="386.9" cy="299.1" r="46.7"/>
</svg>
