<?xml version="1.0" encoding="utf-8"?>
<!-- Generator: Adobe Illustrator 18.1.1, SVG Export Plug-In . SVG Version: 6.00 Build 0)  -->
<!DOCTYPE svg PUBLIC "-//W3C//DTD SVG 1.1//EN" "http://www.w3.org/Graphics/SVG/1.1/DTD/svg11.dtd">
<svg version="1.1" id="Layer_1" xmlns="http://www.w3.org/2000/svg" xmlns:xlink="http://www.w3.org/1999/xlink" x="0px" y="0px"
	 viewBox="537.3 323 126 126" enable-background="new 537.3 323 126 126" xml:space="preserve">
<circle fill="none" stroke="#F07E2F" stroke-miterlimit="10" cx="600.3" cy="386.2" r="60.4"/>
<g>
	<path fill="#F07E2F" d="M599.5,425.7c-0.1-0.1-0.2-0.1-0.3-0.1c-1-0.2-1.7-0.7-2.3-1.5c-0.2-0.2-0.3-0.4-0.4-0.6
		c-0.3-0.6-0.8-0.9-1.4-1.2c-1.7-0.6-2.7-1.8-3.1-3.5c-0.1-0.5-0.1-1-0.1-1.5c0-0.2,0-0.2,0.3-0.2c0.6,0,1.2,0,1.8,0
		c1.1,0,2.2,0,3.3,0c3.3,0,6.6,0,9.9,0c0.2,0,0.3,0,0.5,0c0.4,0.1,0.5,0.3,0.5,0.7c0,0.3-0.1,0.7-0.1,1c-0.4,1.8-1.5,2.9-3.2,3.6
		c-0.6,0.2-1,0.6-1.3,1.1c-0.5,0.8-1.1,1.4-1.9,1.8c-0.3,0.2-0.7,0.2-1.1,0.3c-0.1,0-0.1,0-0.2,0.1
		C600.1,425.7,599.8,425.7,599.5,425.7z M593.2,418.3c0,0.1,0,0.1,0,0.2c0.2,1.6,1.5,2.9,3.1,3c1,0.1,2.1,0.1,3.1,0.1
		c1.3,0,2.5,0,3.8-0.1c0.4,0,0.7,0,1.1-0.1c1.4-0.3,2.4-1.5,2.6-2.7c0-0.4,0.1-0.4-0.3-0.4c-4.3,0-8.7,0-13,0
		C593.4,418.3,593.3,418.3,593.2,418.3z M597.5,422.8c0.4,1.1,1.3,1.8,2.9,1.7c1-0.1,2-0.8,2.2-1.7
		C600.9,422.8,599.2,422.8,597.5,422.8z"/>
	<path fill="#F07E2F" d="M567.4,385.2c0.1,0,0.2-0.1,0.3-0.2c0.2-0.2,0.5-0.3,0.9-0.3c1.8-0.1,3.5-0.2,5.3-0.3
		c0.6,0,1.2-0.1,1.7-0.1c0.4,0,0.8,0.1,1.1,0.5c-0.2,0.3-0.4,0.5-0.8,0.5c-0.7,0-1.4,0.1-2.2,0.1c-1.1,0.1-2.3,0.1-3.4,0.2
		c-0.6,0-1.3,0.1-1.9,0.1c-0.3,0-0.5-0.1-0.7-0.3C567.6,385.3,567.6,385.2,567.4,385.2C567.4,385.2,567.4,385.2,567.4,385.2z"/>
	<path fill="#F07E2F" d="M632.8,385.3c-0.1,0-0.2,0.1-0.3,0.1c-0.3,0.2-0.7,0.3-1.1,0.2c-1.3-0.1-2.6-0.1-3.9-0.2
		c-0.9-0.1-1.8-0.1-2.7-0.2c-0.3,0-0.5-0.1-0.8-0.3c-0.1-0.1-0.2-0.2-0.4-0.3c0.4-0.2,0.8-0.4,1.2-0.4c0.7,0,1.3,0.1,2,0.1
		c1,0,1.9,0.1,2.9,0.2c0.7,0,1.3,0.1,2,0.1c0.3,0,0.5,0.2,0.8,0.3c0.1,0.1,0.2,0.2,0.4,0.2C632.8,385.2,632.8,385.3,632.8,385.3z"/>
	<path fill="#F07E2F" d="M600.7,351.3c0,0.1,0.2,0.2,0.3,0.3c0.1,0.2,0.2,0.3,0.2,0.5c0,2.1,0,4.2,0,6.3c0,0.4,0,0.7,0,1.1
		c0,0.3-0.1,0.5-0.3,0.7c-0.1,0.1-0.1,0.1-0.2,0.2c-0.3-0.3-0.5-0.6-0.5-1c0-2.4,0-4.8,0-7.2c0-0.3,0.1-0.6,0.2-0.8
		C600.6,351.4,600.6,351.3,600.7,351.3C600.7,351.3,600.7,351.3,600.7,351.3z"/>
	<path fill="#F07E2F" d="M600,409.9c-2.8,0-5.7,0-8.5,0c-0.5,0-0.4,0.1-0.4-0.4c0-1.3,0-2.7,0-4c0-0.7-0.1-1.4-0.2-2
		c-0.1-0.3-0.2-0.7-0.4-1c-1.2-1.9-2.5-3.8-3.8-5.7c-0.5-0.7-1-1.3-1.4-1.9c-1.9-2.5-3.1-5.3-3.7-8.3c-0.3-1.8-0.4-3.7-0.2-5.5
		c0.7-5.4,3.4-9.7,7.7-13c1.9-1.4,4.1-2.5,6.4-3.1c1.9-0.5,3.8-0.6,5.8-0.5c4.2,0.3,7.9,1.9,11.1,4.6c3.1,2.6,5.1,5.9,6,9.9
		c0.3,1.4,0.4,2.7,0.5,4.1c0,2.6-0.4,5.1-1.5,7.6c-0.6,1.5-1.4,2.9-2.4,4.2c-1.7,2.2-3.3,4.6-4.8,6.9c-0.2,0.3-0.3,0.5-0.5,0.8
		c-0.5,0.6-0.6,1.3-0.6,2.1c0,1.6,0,3.2,0,4.8c0,0.1,0,0.1,0,0.2c0,0.2-0.1,0.2-0.2,0.2c-0.2,0-0.5,0-0.7,0
		C605.4,409.9,602.7,409.9,600,409.9z M598,376.8C598,376.8,598,376.8,598,376.8c-0.3,0.1-0.6,0.1-0.9,0.1c-0.2,0-0.5,0-0.7,0
		c-0.1,0-0.2,0-0.1,0.1c0,0.1,0,0.1,0,0.2c0,0.9,0,1.8,0,2.7c0,0.3,0,0.3-0.3,0.3c-0.4,0-0.8,0-1.3,0c-0.1,0-0.2,0-0.2,0.2
		c0,0.4,0,0.8,0,1.2c0,0.1,0,0.2,0.2,0.2c0,0,0.1,0,0.2,0c1.8,0,3.6,0,5.4,0c0.1,0,0.1,0,0.2,0c0.1,0,0.2-0.1,0.2-0.2
		c0-0.1,0-0.1,0-0.2c0-1.2,0-2.4,0-3.7c0-1.3,0-2.6,0-4c0-0.2,0-0.3,0.2-0.3c0.4,0,0.8,0,1.3,0c0.4,0,0.4,0,0.4-0.3
		c0-0.4,0-0.8,0-1.3c0-0.1,0-0.2,0.2-0.2c0.1,0,0.2,0,0.2,0c2.6,0,5.2,0,7.7,0c0.5,0,1.1,0,1.6,0c0.2,0,0.2,0,0.2,0.2
		c0,0.4,0,0.8,0,1.2c0,0.3,0,0.3,0.4,0.3c0.3,0,0.7,0,1,0c0.4,0,0.4,0,0.4,0.4c0,4.2,0,8.4,0,12.5c0,0.1,0,0.2,0,0.3
		c0,0.1,0,0.1,0.1,0.1c0.3,0,0.6,0,0.9,0c0.1,0,0.2,0,0.2-0.2c0-0.3,0-0.5,0-0.8c0-0.4,0-0.9,0-1.3c0-0.2,0.1-0.2,0.2-0.2
		c0.2,0,0.3,0,0.5,0c0.2,0,0.2,0,0.3-0.2c0.2-0.7,0.6-1.3,1.2-1.7c0.2-0.1,0.2-0.2,0.2-0.4c-0.1-1.1-0.2-2.2-0.5-3.2
		c-1.2-4.5-3.8-8-7.7-10.5c-2.6-1.7-5.4-2.6-8.4-2.7c-2-0.1-4,0.1-5.9,0.7c-3.5,1-6.4,2.9-8.8,5.8c-2.4,2.9-3.7,6.2-4,9.9
		c-0.1,1.7,0,3.3,0.3,4.9c0.1,0.2,0.1,0.2,0.3,0.2c0.6,0,1.1,0,1.7,0c1,0,2.1,0,3.1,0c0.2,0,0.2,0,0.2-0.2c0-0.5,0-1,0-1.5
		c0-0.2,0-0.2-0.2-0.2c-0.4,0-0.8,0-1.2,0c-0.4,0-0.4,0.1-0.4-0.4c0-0.9,0-1.8,0-2.7c0-0.4,0-0.3,0.3-0.3c1,0,2,0,3,0
		c0.2,0,0.2,0,0.2-0.3c0-0.4,0-0.7,0-1.1c0-0.2-0.1-0.2-0.2-0.2c-0.4,0-0.8,0-1.3,0c-0.3,0-0.3,0-0.3-0.3c0-0.9,0-1.8,0-2.7
		c0-0.5,0-0.5-0.5-0.5c-0.4,0-0.9,0-1.3,0c0.1-0.1,0.1-0.1,0.1-0.1c1.9-1.1,3.7-2.1,5.6-3.2c0.1-0.1,0.2,0,0.4,0
		c1.1,0.6,2.2,1.3,3.4,1.9C596.5,375.9,597.3,376.3,598,376.8z M604.1,397c0-3.8,0-7.6,0-11.4c0-0.1,0-0.2,0-0.2
		c0-0.1-0.1-0.2-0.2-0.2c0,0-0.1,0-0.2,0c-4.8,0-9.5,0-14.3,0c-0.1,0-0.1,0-0.2,0c-0.1,0-0.1,0-0.1,0.1c0,0.1,0,0.1,0,0.2
		c0,4.3,0,8.5,0,12.8c0,0.2,0,0.3,0.1,0.4c0.5,0.8,1.1,1.5,1.6,2.3c0.3,0.5,0.7,1,0.9,1.5c0.1,0.2,0.2,0.2,0.4,0.2
		c0.4,0,0.9,0,1.3,0c0.2,0,0.2,0,0.2,0.2c0,1,0,2,0,3c0,0.2-0.1,0.2-0.2,0.2c-0.4,0-0.7,0-1.1,0c-0.2,0-0.2,0-0.2,0.2
		c0,0.4,0,0.9,0,1.3c0,0.2,0,0.2,0.3,0.2c0.3,0,0.6,0,1,0c0.3,0,0.3,0,0.3,0.2c0,0.1,0,0.3,0,0.4c0,0.1,0,0.1,0.1,0.1
		c0.5,0,1,0,1.5,0c0.1,0,0.1,0,0.1-0.1c0-0.2,0-0.3,0-0.5c0-0.1,0-0.2,0.2-0.2c0.1,0,0.2,0,0.3,0c0.6,0,1.1,0,1.7,0
		c0.3,0,0.3,0,0.3,0.3c0,0.1,0,0.3,0,0.4c0,0.1,0,0.1,0.1,0.1c0.5,0,1,0,1.5,0c0.1,0,0.2,0,0.2-0.2c0-0.2,0-0.3,0-0.5
		c0-0.1,0-0.2,0.2-0.2c0.7,0,1.4,0,2.1,0c0.1,0,0.2,0.1,0.2,0.2c0,0.2,0,0.3,0,0.5c0,0.2,0.1,0.2,0.2,0.2c0.5,0,1,0,1.5,0
		c0.3,0,0.3,0,0.3-0.3c0-0.1,0-0.1,0-0.2C604.1,404.6,604.1,400.8,604.1,397z M613.4,395.1C613.3,395.1,613.3,395.1,613.4,395.1
		c-1.2-0.6-2.3-1.2-3.5-1.7c-0.1-0.1-0.2,0-0.4,0c-0.6,0.3-1.1,0.6-1.7,0.8c-0.8,0.4-1.6,0.8-2.4,1.2c-0.2,0.1-0.2,0.2-0.2,0.3
		c0,0,0,0.1,0,0.1c0,4.2,0,8.3,0,12.5c0,0.1,0,0.1,0,0.2c0,0.2,0.1,0.2,0.2,0.2c0.6,0,1.1,0,1.7,0c0.3,0,0.5-0.2,0.6-0.4
		c0.1-0.2,0.1-0.3,0.1-0.5c0-0.4,0-0.8,0-1.3c0-0.8,0-1.6,0.1-2.4c0.1-0.4,0.1-0.4-0.3-0.4c-0.2,0-0.2,0-0.2,0.2c0,0.1,0,0.1,0,0.2
		c0,0.6,0,1.2,0,1.8c0,0.3,0,0.3-0.3,0.3c-0.2,0-0.3,0-0.5,0c-0.2,0-0.2,0-0.2-0.2c0-1,0-2,0-3c0-0.2,0-0.2,0.3-0.2c0.5,0,1,0,1.5,0
		c0.1,0,0.2,0,0.3-0.2c0.1-0.2,0.2-0.3,0.3-0.5c0.5-0.8,1.1-1.6,1.6-2.4c0.1-0.2,0.2-0.3,0.1-0.5c0-0.2,0-0.5,0-0.7
		c0-0.3,0-0.6,0-0.9c0.3-0.1,0.6,0,0.9,0c0.1,0,0.1,0,0.2,0c0.2,0,0.3-0.1,0.4-0.2c0.5-0.7,1-1.4,1.4-2
		C613.3,395.2,613.3,395.2,613.4,395.1z M596.6,384.2c3,0,5.9,0,8.9,0c0.1,0,0.1,0,0.2,0c0.3,0,0.3,0,0.3-0.2c0-0.3,0-0.5,0-0.8
		c0-0.4,0-0.4-0.4-0.4c-5.9,0-11.9,0-17.8,0c0,0,0,0,0,0c-0.4,0-0.3,0-0.3,0.3c0,0.2,0,0.5,0,0.7c0,0.4,0,0.4,0.4,0.4
		C590.7,384.2,593.7,384.2,596.6,384.2z M607,393.5c0.3-0.1,0.5-0.2,0.7-0.3c0.1,0,0.1-0.1,0.1-0.1c0-0.1,0-0.2,0-0.3
		c0-5.9,0-11.7,0-17.6c0-0.6,0-0.6-0.6-0.6c0,0,0,0,0,0c-0.1,0-0.1,0-0.1,0.1c0,0.1,0,0.1,0,0.2c0,6.1,0,12.1,0,18.2
		C607,393.3,606.9,393.4,607,393.5z M608.8,392.6c0.2-0.1,0.4-0.2,0.6-0.3c0.1-0.1,0.2-0.2,0.2-0.3c0,0,0-0.1,0-0.2
		c0-5.6,0-11.2,0-16.9c0-0.4,0-0.4-0.4-0.4c-0.4,0-0.4,0-0.4,0.4c0,5.8,0,11.5,0,17.3C608.8,392.4,608.8,392.5,608.8,392.6z
		 M613,393.8c0-0.1,0-0.2,0-0.3c0-6.2,0-12.3,0-18.5c0-0.1,0-0.2,0-0.2c0-0.1,0-0.2-0.1-0.2c-0.1,0-0.1,0-0.2,0
		c-0.4,0-0.4,0-0.4,0.4c0,6,0,11.9,0,17.9c0,0.2-0.1,0.5,0,0.6C612.5,393.6,612.8,393.7,613,393.8C613,393.8,613,393.7,613,393.8z
		 M611.3,392.9c0-0.1,0-0.2,0-0.3c0-5.9,0-11.7,0-17.6c0-0.1,0-0.1,0-0.2c0-0.1,0-0.2-0.2-0.2c-0.1,0-0.1,0-0.2,0
		c-0.5,0-0.4-0.1-0.4,0.4c0,5.6,0,11.2,0,16.8c0,0.2-0.1,0.5,0,0.7C610.8,392.7,611,392.8,611.3,392.9
		C611.2,392.9,611.3,392.9,611.3,392.9z M614.1,394.1c0.8-1.1,1.5-2.2,2.1-3.5c-0.3,0-0.5,0-0.7,0c-0.1,0-0.2,0-0.2-0.2
		c0-0.2,0-0.4,0-0.6c0-0.2,0-0.2,0.2-0.2c0.3,0,0.7,0,1,0c0.1,0,0.2,0,0.2-0.1c0.2-0.5,0.3-0.9,0.4-1.4c0,0,0-0.1,0-0.1
		c-0.4,0-0.7,0-1.1,0c-0.5,0-1.1,0-1.6,0c-0.2,0-0.2,0-0.2,0.3c0,0,0,0,0,0.1c0,1.9,0,3.7,0,5.6
		C614.1,393.9,614.1,393.9,614.1,394.1z M588.1,390.3c0-0.6,0-1.2,0-1.9c0-0.2,0-0.2-0.2-0.2c-0.4,0-0.8,0-1.2,0
		c-0.2,0-0.2,0-0.2,0.3c0,0.6,0,1.3,0,1.9c0,0.6,0,1.1,0,1.7c0,0.2,0,0.2,0.2,0.2c0.4,0,0.8,0,1.2,0c0.2,0,0.3,0,0.3-0.2
		C588.1,391.5,588.1,390.9,588.1,390.3z M605.2,394.4c0.2,0,0.3-0.1,0.4-0.2c0.2-0.1,0.3-0.2,0.3-0.5c0-2.7,0-5.3,0-8
		c0-0.5,0-0.5-0.5-0.5c-0.3,0-0.3,0-0.3,0.3c0,0,0,0,0,0.1c0,2.8,0,5.7,0,8.5C605.2,394.2,605.2,394.3,605.2,394.4z M607.4,372.8
		c-1.2,0-2.4,0-3.5,0c-0.5,0-0.5,0-0.5,0.5c0,0.3,0,0.3,0.3,0.3c2.4,0,4.9,0,7.3,0c0.1,0,0.1,0,0.2,0c0.1,0,0.1,0,0.1-0.1
		c0-0.2,0-0.3,0-0.5c0-0.1-0.1-0.2-0.2-0.2c-0.1,0-0.1,0-0.2,0C609.8,372.8,608.6,372.8,607.4,372.8z M602.4,378.2
		c0-1.1,0-2.2,0-3.2c0-0.1,0-0.1,0-0.2c0-0.1-0.1-0.1-0.1-0.1c-0.1,0-0.3,0-0.4,0c-0.3,0-0.3,0-0.3,0.3c0,0.1,0,0.1,0,0.2
		c0,2.1,0,4.1,0,6.2c0,0.2-0.1,0.4,0,0.5c0.1,0.1,0.3,0,0.5,0c0.3,0,0.3,0,0.3-0.3C602.4,380.4,602.4,379.3,602.4,378.2z
		 M585.4,390.3c0-0.6,0-1.2,0-1.9c0-0.2-0.1-0.2-0.2-0.2c-0.5,0-0.9,0-1.4,0c-0.2,0-0.2,0.1-0.2,0.2c0,0.4,0,0.8,0,1.2
		c0,0.1,0,0.2,0.1,0.3c0.3,0.7,0.6,1.4,1,2.1c0.1,0.2,0.3,0.3,0.5,0.3c0.2,0,0.2,0,0.2-0.2C585.4,391.5,585.4,390.9,585.4,390.3z
		 M605.9,378.2c0-1,0-2,0-3c0-0.6,0-0.6-0.6-0.5c-0.1,0-0.2,0.1-0.2,0.2c0,0.1,0,0.1,0,0.2c0,2.1,0,4.1,0,6.2c0,0.6,0,0.6,0.6,0.6
		c0,0,0,0,0,0c0.1,0,0.1,0,0.1-0.1c0-0.1,0-0.1,0-0.2C605.9,380.4,605.9,379.3,605.9,378.2z M604.2,378.2c0-1,0-2.1,0-3.1
		c0-0.6,0.1-0.5-0.5-0.5c-0.3,0-0.3,0-0.3,0.3c0,0,0,0.1,0,0.1c0,2.2,0,4.3,0,6.5c0,0.1,0,0.1,0,0.2c0,0.1,0.1,0.2,0.2,0.2
		c0.2,0,0.3,0,0.5,0c0.1,0,0.2,0,0.1-0.1c0-0.1,0-0.1,0-0.2C604.2,380.4,604.2,379.3,604.2,378.2z M588.1,396.9c0-1.1,0-2.2,0-3.4
		c0-0.1,0-0.2-0.2-0.2c-0.4,0-0.9,0-1.3,0c-0.1,0-0.2,0.1-0.2,0.2c0,0.3,0,0.6,0,0.9c0,0.1,0,0.2,0.1,0.3c0.5,0.7,1,1.3,1.4,2
		C588,396.9,588,396.9,588.1,396.9z M592.2,381.8c0.4,0,0.8,0,1.1,0c0.1,0,0.2,0,0.2-0.2c0-0.4,0-0.8,0-1.2c0-0.1-0.1-0.2-0.2-0.2
		c-0.7,0-1.5,0-2.2,0c-0.1,0-0.2,0-0.2,0.2c0,0.4,0,0.8,0,1.2c0,0.2,0,0.2,0.2,0.2C591.5,381.8,591.8,381.8,592.2,381.8z
		 M594.1,375.8C594.1,375.8,594.1,375.8,594.1,375.8c-0.6-0.4-1.2-0.8-1.8-1.1c-0.1-0.1-0.2,0-0.3,0c-0.3,0.2-0.7,0.4-1,0.6
		c-0.3,0.1-0.5,0.3-0.8,0.5C591.5,375.8,592.8,375.8,594.1,375.8z M593.5,378c0-0.2,0-0.4,0-0.7c0-0.6,0-0.6-0.6-0.5
		c-0.2,0-0.2,0-0.2,0.2c0,0.5,0,1.1,0,1.6c0,0.6,0,0.6,0.6,0.5c0.1,0,0.2,0,0.2-0.2C593.5,378.7,593.5,378.4,593.5,378z M591.7,378
		c0-0.2,0-0.4,0-0.6c0-0.5,0-0.5-0.5-0.5c-0.2,0-0.3,0-0.3,0.2c0,0.5,0,1,0,1.6c0,0.6,0,0.6,0.6,0.6c0.1,0,0.2,0,0.2-0.2
		C591.7,378.7,591.7,378.3,591.7,378z M617.6,385.4c-0.4,0-0.8,0-1.2,0c-0.1,0-0.1,0.1-0.1,0.2c0,0.4,0,0.8,0,1.1
		c0,0.1,0.1,0.2,0.2,0.2c0.3,0,0.5,0,0.8,0c0.1,0,0.2,0,0.2-0.1C617.5,386.3,617.6,385.9,617.6,385.4z M594.5,378c0,0.2,0,0.5,0,0.7
		c0,0.5,0,0.5,0.5,0.5c0.2,0,0.2,0,0.2-0.2c0-0.5,0-1.1,0-1.6c0-0.6,0.1-0.5-0.5-0.5c-0.2,0-0.2,0-0.2,0.2
		C594.5,377.4,594.5,377.7,594.5,378z M589.1,378c0,0.3,0,0.7,0,1c0,0.1,0,0.2,0.2,0.2c0.1,0,0.2,0,0.4,0c0.2,0,0.2,0,0.2-0.2
		c0-0.5,0-1.1,0-1.6c0-0.6,0-0.6-0.5-0.5c-0.1,0-0.2,0-0.2,0.2C589.1,377.3,589.1,377.7,589.1,378z M617.8,383.7
		c-0.2,0.2-0.4,0.4-0.4,0.6c0.1,0,0.1,0,0.1,0c0.2,0,0.2,0,0.3-0.2C617.8,384,617.8,383.9,617.8,383.7z"/>
	<path fill="#F07E2F" d="M600.1,411.1c2,0,4.1,0,6.1,0c0.4,0,0.8,0,1.2,0.1c1.3,0.3,2,1.5,1.8,2.8c-0.2,1.1-1,1.8-2.1,2
		c-0.3,0-0.5,0.1-0.8,0.1c-4,0-8.1,0-12.1,0c-0.5,0-1,0-1.6-0.1c-1.2-0.3-1.9-1.3-1.9-2.5c0.1-1.2,0.9-2.1,2.1-2.3
		c0.2,0,0.5-0.1,0.8-0.1C595.8,411.1,597.9,411.1,600.1,411.1C600.1,411.1,600.1,411.1,600.1,411.1z M600,412.2
		C600,412.2,600,412.2,600,412.2c-2.1,0-4.2,0-6.4,0c-0.2,0-0.3,0-0.5,0c-0.6,0.1-1,0.5-1.1,1.1c-0.1,0.6,0.1,1.1,0.7,1.3
		c0.1,0.1,0.2,0.1,0.4,0.1c0.3,0.1,0.5,0.1,0.8,0.1c4.1,0,8.3,0,12.4,0c0.2,0,0.3,0,0.5,0c0.3,0,0.6-0.1,0.9-0.3
		c0.4-0.3,0.6-0.7,0.6-1.2c0-0.5-0.3-0.8-0.7-1c-0.2-0.1-0.5-0.2-0.7-0.2c-0.7,0-1.3,0-2,0C603.1,412.2,601.6,412.2,600,412.2z"/>
	<path fill="#F07E2F" d="M580.5,397.1c-0.2,0.5-0.4,0.9-0.8,1.2c-1.9,1.3-3.7,2.6-5.6,3.9c-0.2,0.1-0.3,0.2-0.5,0.3
		c-0.1,0-0.2,0.1-0.3,0.1c-0.1-0.1-0.3-0.1-0.4-0.2c-0.1-0.1,0-0.2,0-0.2c0-0.2,0.2-0.4,0.4-0.5c0.7-0.5,1.5-1.1,2.2-1.6
		c1.2-0.9,2.5-1.7,3.7-2.6C579.6,397.1,580,397.1,580.5,397.1z"/>
	<path fill="#F07E2F" d="M618.2,355.7c0,0.2,0,0.3,0,0.4c0,0.2,0,0.4-0.2,0.6c-1.2,2-2.4,3.9-3.6,5.9c-0.2,0.3-0.4,0.6-0.6,0.9
		c0,0-0.1,0.1-0.1,0.1c-0.2,0.1-0.4,0-0.4-0.2c-0.1-0.4,0-0.7,0.2-1.1c0.6-1,1.2-2,1.8-2.9c0.6-1,1.2-2,1.8-3
		C617.3,356,617.7,355.8,618.2,355.7z"/>
	<path fill="#F07E2F" d="M621.2,373.5c0.1-0.1,0.1-0.3,0.2-0.4c0.1-0.2,0.3-0.4,0.5-0.5c1.8-1,3.7-2,5.5-2.9c0.3-0.2,0.7-0.3,1-0.5
		c0.3-0.2,0.7-0.1,1,0c0.1,0,0.1,0.3,0.1,0.4c-0.2,0.2-0.3,0.4-0.6,0.5c-2.2,1.2-4.4,2.3-6.6,3.5c-0.2,0.1-0.3,0.1-0.5,0.1
		C621.6,373.6,621.4,373.5,621.2,373.5z"/>
	<path fill="#F07E2F" d="M586.9,363.5c-0.2-0.1-0.3-0.1-0.4-0.1c-0.2-0.1-0.4-0.2-0.5-0.4c-0.9-1.5-1.8-3-2.7-4.4
		c-0.4-0.6-0.7-1.2-1.1-1.8c-0.2-0.3-0.2-0.7-0.2-1c0-0.1,0.3-0.2,0.4-0.1c0.2,0.2,0.4,0.3,0.6,0.5c1.2,1.9,2.3,3.8,3.5,5.8
		c0.1,0.2,0.2,0.4,0.3,0.5c0.2,0.2,0.2,0.5,0.2,0.7C586.9,363.3,586.9,363.4,586.9,363.5z"/>
	<path fill="#F07E2F" d="M578.7,373.6c-0.2,0-0.4,0-0.6-0.1c-2.1-1-4.1-2.1-6.2-3.2c-0.1-0.1-0.2-0.1-0.3-0.2
		c-0.3-0.1-0.5-0.4-0.6-0.7c0-0.1,0-0.1,0.1-0.2c0.3-0.1,0.6-0.1,0.9,0.1c2.2,1.1,4.4,2.3,6.6,3.4c0.2,0.1,0.4,0.2,0.5,0.4
		c0,0,0.1,0.1,0.1,0.1c0.1,0.2,0,0.3-0.3,0.3C578.8,373.6,578.7,373.6,578.7,373.6z"/>
	<path fill="#F07E2F" d="M619.8,397.1C619.8,397.1,619.8,397.1,619.8,397.1c0.5-0.1,0.9,0,1.3,0.3c2,1.4,3.9,2.7,5.9,4.1
		c0.2,0.1,0.3,0.3,0.5,0.5c0.1,0.1,0.1,0.2,0.1,0.3c0,0.1-0.1,0.2-0.2,0.2c-0.4,0-0.7-0.1-1.1-0.3c-2-1.3-3.9-2.7-5.8-4.1
		C620,397.8,619.9,397.5,619.8,397.1z"/>
	<path fill="#F07E2F" d="M597.8,388.9c0,0.5,0,1,0,1.4c0,0.2,0,0.2-0.2,0.2c-0.7,0-1.3,0-2,0c-0.3,0-0.3,0-0.3-0.3c0-1,0-1.9,0-2.9
		c0-0.2,0-0.2,0.3-0.2c0.7,0,1.3,0,2,0c0.2,0,0.3,0,0.3,0.3C597.8,387.9,597.8,388.4,597.8,388.9z"/>
	<path fill="#F07E2F" d="M602.1,399.3c0,0.5,0,1,0,1.5c0,0.2,0,0.2-0.2,0.2c-0.7,0-1.4,0-2.1,0c-0.1,0-0.2-0.1-0.2-0.2c0-1,0-2,0-3
		c0-0.1,0-0.2,0.2-0.2c0.7,0,1.4,0,2.1,0c0.1,0,0.2,0,0.2,0.2C602.1,398.3,602.1,398.8,602.1,399.3z"/>
	<path fill="#F07E2F" d="M599.7,404.5c0-0.5,0-1,0-1.5c0-0.2,0-0.2,0.2-0.2c0.7,0,1.3,0,2,0c0.2,0,0.2,0,0.2,0.2c0,1,0,2,0,3
		c0,0.2,0,0.2-0.2,0.2c-0.7,0-1.4,0-2.1,0c-0.2,0-0.2,0-0.2-0.2C599.7,405.4,599.7,404.9,599.7,404.5z"/>
	<path fill="#F07E2F" d="M597.8,399.3c0,0.5,0,1,0,1.4c0,0.2,0,0.2-0.2,0.2c-0.7,0-1.3,0-2,0c-0.2,0-0.2,0-0.2-0.2c0-1,0-2,0-3
		c0-0.1,0-0.2,0.2-0.2c0.7,0,1.4,0,2.1,0c0.2,0,0.2,0.1,0.2,0.2C597.8,398.3,597.8,398.8,597.8,399.3z"/>
	<path fill="#F07E2F" d="M597.9,394.1c0,0.5,0,1,0,1.5c0,0.2,0,0.2-0.2,0.2c-0.7,0-1.3,0-2,0c-0.2,0-0.2,0-0.2-0.2c0-1,0-2,0-3
		c0-0.2,0.1-0.2,0.2-0.2c0.7,0,1.4,0,2.1,0c0.2,0,0.2,0,0.2,0.2C597.9,393.1,597.9,393.6,597.9,394.1z"/>
	<path fill="#F07E2F" d="M593.7,394.1c0,0.5,0,1,0,1.5c0,0.2,0,0.2-0.2,0.2c-0.7,0-1.3,0-2,0c-0.2,0-0.2,0-0.2-0.2c0-1,0-2,0-3
		c0-0.2,0.1-0.2,0.2-0.2c0.7,0,1.4,0,2.1,0c0.2,0,0.2,0,0.2,0.2C593.7,393.1,593.7,393.6,593.7,394.1z"/>
	<path fill="#F07E2F" d="M593.6,388.9c0,0.5,0,1,0,1.5c0,0.2,0,0.2-0.2,0.2c-0.7,0-1.3,0-2,0c-0.2,0-0.2,0-0.2-0.2c0-1,0-1.9,0-2.9
		c0-0.2,0-0.2,0.2-0.2c0.7,0,1.3,0,2,0c0.2,0,0.2,0,0.2,0.3C593.6,387.9,593.6,388.4,593.6,388.9z"/>
	<path fill="#F07E2F" d="M597.9,404.5c0,0.5,0,1,0,1.5c0,0.2-0.1,0.2-0.2,0.2c-0.7,0-1.4,0-2,0c-0.2,0-0.2-0.1-0.2-0.2c0-1,0-2,0-3
		c0-0.1,0.1-0.2,0.2-0.2c0.7,0,1.4,0,2.1,0c0.1,0,0.2,0.1,0.2,0.2C597.9,403.5,597.9,404,597.9,404.5z"/>
	<path fill="#F07E2F" d="M591.2,399.3c0-0.5,0-1,0-1.5c0-0.2,0-0.2,0.2-0.2c0.7,0,1.4,0,2.1,0c0.1,0,0.2,0,0.2,0.2c0,1,0,2,0,3
		c0,0.2,0,0.2-0.2,0.2c-0.7,0-1.3,0-2,0c-0.2,0-0.2,0-0.2-0.2C591.2,400.2,591.2,399.7,591.2,399.3z"/>
	<path fill="#F07E2F" d="M602,388.9c0,0.5,0,1,0,1.5c0,0.2-0.1,0.2-0.2,0.2c-0.7,0-1.3,0-2,0c-0.2,0-0.2,0-0.2-0.2c0-1,0-2,0-2.9
		c0-0.2,0-0.2,0.2-0.2c0.7,0,1.3,0,2,0c0.2,0,0.2,0.1,0.2,0.2C602,387.9,602,388.4,602,388.9z"/>
	<path fill="#F07E2F" d="M602.1,394.1c0,0.5,0,1,0,1.5c0,0.2,0,0.2-0.2,0.2c-0.7,0-1.3,0-2,0c-0.2,0-0.2,0-0.2-0.2c0-1,0-2,0-3
		c0-0.1,0-0.2,0.2-0.2c0.7,0,1.4,0,2.1,0c0.2,0,0.2,0,0.2,0.2C602.1,393.1,602.1,393.6,602.1,394.1z"/>
	<path fill="#F07E2F" d="M606.3,399.2c0-0.5,0-1,0-1.5c0-0.2,0-0.2,0.2-0.2c0.8,0,1.5,0,2.3,0c0.2,0,0.2,0,0.2,0.3
		c0,0.2,0,0.3,0,0.5c0,0.3,0,0.3-0.3,0.3c-0.4,0-0.8,0-1.2,0c-0.2,0-0.3,0-0.3,0.2c0,0.6,0,1.2,0,1.9c0,0.3,0,0.3-0.3,0.3
		c-0.2,0-0.3,0-0.5,0c-0.2,0-0.2,0-0.2-0.2C606.3,400.3,606.3,399.8,606.3,399.2z"/>
</g>
</svg>
