<?xml version="1.0" encoding="utf-8"?>
<!-- Generator: Adobe Illustrator 18.1.1, SVG Export Plug-In . SVG Version: 6.00 Build 0)  -->
<!DOCTYPE svg PUBLIC "-//W3C//DTD SVG 1.1//EN" "http://www.w3.org/Graphics/SVG/1.1/DTD/svg11.dtd">
<svg version="1.1" id="Layer_1" xmlns="http://www.w3.org/2000/svg" xmlns:xlink="http://www.w3.org/1999/xlink" x="0px" y="0px"
	 viewBox="537.3 323 126 126" enable-background="new 537.3 323 126 126" xml:space="preserve">
<circle fill="none" stroke="#F07E2F" stroke-miterlimit="10" cx="600.3" cy="385.9" r="60.4"/>
<g>
	<path fill="#F07E2F" d="M583,380c0-2.7,0-5.3,0-7.9c0.9,0,1.7,0,2.6,0c0,2.6,0,5.3,0,8c8.9,0,17.7,0,26.6,0c0-2.6,0-5.3,0-8
		c0.9,0,1.7,0,2.7,0c0,2.6,0,5.3,0,8c1.4,0,2.8-0.1,4.1,0c0.9,0.1,1.9,0.2,2.8,0.5c2.2,0.8,3.3,2.4,3.2,4.7c0,1.5,0,3,0,4.5
		c-0.9,0-1.8,0-2.7,0c0-1.3,0-2.7,0-4c0-2.1-0.8-2.9-2.9-3c-2.2,0-4.3,0-6.5,0c-3.5,0-6.9,0-10.4,0c-0.2,0-0.4,0-0.7,0
		c0,2.3,0,4.6,0,6.9c-0.9,0-1.8,0-2.7,0c0-2.3,0-4.6,0-6.9c-0.4,0-0.7,0-1,0c-5.5,0-10.9,0-16.4,0c-0.6,0-1.2,0.1-1.8,0.3
		c-1.1,0.4-1.5,1-1.5,2.1c0,1.5,0,3,0,4.5c-0.9,0-1.8,0-2.7,0c0-1.9-0.1-3.8,0-5.6c0.2-2,2-3.5,4.3-3.9
		C580.9,380.1,581.9,380.1,583,380z"/>
</g>
<g>
	<polygon fill="#FFFFFF" points="619.1,368.4 608.6,368.4 611,358.6 616.7,358.6 	"/>
	<path fill="#ED7B27" d="M619.5,368.8h-11.4l2.6-10.5h6.2L619.5,368.8z M609,368.1h9.7l-2.4-9.1h-5L609,368.1z"/>
</g>
<g>
	<g>
		<circle fill="#FFFFFF" cx="615.5" cy="354" r="5.7"/>
		<g>
			<path fill="#FFFFFF" d="M621.2,354c0-3.2-2.5-5.7-5.7-5.7c-3.2,0-5.7,2.2-5.7,5.7l0,0.6c-0.8,0.1-1.3,0.8-1.3,1.5
				c0,0.4,0.1,0.7,0.3,1c-0.5,0.2-0.9,0.8-0.9,1.4c0,0.9,0.7,1.6,1.6,1.6c0.3,0,0.6-0.1,0.9-0.3c0.3,0.4,0.8,0.7,1.3,0.7
				c0.6,0,1.1-0.3,1.3-0.7h0.4c0.3,0.4,0.8,0.7,1.3,0.7c0.6,0,1.1-0.3,1.3-0.8C618.8,359.5,621.2,357,621.2,354z M614.5,360.5
				c0.9,0,1.4-0.7,1.4-1.6c0-0.7-0.7-1.5-1.2-1.5l0,0l-0.5-1.5c-0.9,0-1.6-0.7-1.6-1.6c0-0.9,0.7-1.6,1.6-1.6c0,0,0.2-4,3.3-4"/>
			<path fill="#ED7B27" d="M614.5,360.9L614.5,360.9c-0.6,0-1.2-0.2-1.6-0.7c-0.4,0.4-0.9,0.7-1.5,0.7c-0.5,0-1-0.2-1.4-0.6
				c-0.2,0.1-0.5,0.2-0.8,0.2c-1.1,0-2-0.9-2-2c0-0.6,0.3-1.2,0.8-1.6c-0.1-0.3-0.2-0.5-0.2-0.8c0-0.9,0.6-1.6,1.4-1.9l0-0.3
				c0-3.6,2.5-6.1,6.1-6.1c3.4,0,6.1,2.8,6.1,6.1c0,3.2-2.4,5.8-5.5,6.1c0,0.1-0.1,0.1-0.1,0.2C615.6,360.7,615.1,360.9,614.5,360.9
				z M610.3,359.2l0.2,0.3c0.2,0.3,0.6,0.5,0.9,0.5c0.4,0,0.8-0.2,1-0.5l0.1-0.2h0.8l0.1,0.2c0.2,0.3,0.6,0.5,1,0.5
				c0.3,0,0.6-0.1,0.8-0.3c0.2-0.2,0.3-0.5,0.3-0.8c0-0.5-0.6-1.1-0.8-1.1h-0.3l-0.5-1.5c-0.9-0.2-1.7-1-1.7-1.9
				c0-1,0.7-1.8,1.6-1.9c0.1-1.2,0.7-2.8,2-3.6c-0.1,0-0.3,0-0.4,0c-3.1,0-5.3,2.2-5.3,5.3l0,0l-0.1,0.9l-0.3,0
				c-0.6,0.1-1,0.6-1,1.1c0,0.3,0.1,0.5,0.2,0.7l0.3,0.4l-0.5,0.2c-0.4,0.2-0.7,0.6-0.7,1c0,0.6,0.5,1.1,1.1,1.1
				c0.2,0,0.4-0.1,0.6-0.2L610.3,359.2z M615,357c0.7,0.2,1.3,1.1,1.3,1.9c0,0.1,0,0.2,0,0.3c2.5-0.4,4.4-2.6,4.4-5.2
				c0-2.2-1.3-4.1-3.2-4.9c-2.6,0.1-2.8,3.6-2.8,3.6l0,0.4h-0.4c-0.6,0-1.1,0.5-1.1,1.1c0,0.6,0.5,1.1,1.1,1.1h0.3L615,357z"/>
		</g>
		<circle fill="#ED7B27" cx="617.7" cy="353.2" r="0.8"/>
	</g>
	<g>
		
			<ellipse transform="matrix(0.6692 0.7431 -0.7431 0.6692 462.2892 -338.4002)" fill="#FFFFFF" cx="611.2" cy="350" rx="2.3" ry="6.4"/>
		<path fill="#ED7B27" d="M607.4,355.1C607.4,355.1,607.4,355.1,607.4,355.1c-0.7,0-1-0.3-1.2-0.5c-0.4-0.4-0.7-1.3,0.2-3
			c0.6-1.2,1.7-2.5,3-3.7c2-1.8,4.3-3,5.7-3c0.7,0,1,0.3,1.2,0.5c0.4,0.4,0.7,1.3-0.2,3c-0.6,1.2-1.7,2.5-3,3.7
			C611,353.9,608.8,355.1,607.4,355.1z M615.1,345.8c-1,0-3,0.9-5.1,2.8c-1.2,1.1-2.2,2.3-2.8,3.4c-0.5,0.9-0.6,1.7-0.4,2
			c0.1,0.1,0.3,0.2,0.6,0.2c1,0,3-0.9,5.1-2.8c1.2-1.1,2.2-2.3,2.8-3.4c0.5-0.9,0.6-1.7,0.4-2C615.6,345.9,615.4,345.8,615.1,345.8z
			"/>
	</g>
	<g>
		<circle fill="#FFFFFF" cx="609.2" cy="348.3" r="1.6"/>
		<path fill="#ED7B27" d="M609.2,350.2c-1.1,0-2-0.9-2-2c0-1.1,0.9-2,2-2c1.1,0,2,0.9,2,2C611.2,349.4,610.3,350.2,609.2,350.2z
			 M609.2,347.1c-0.6,0-1.1,0.5-1.1,1.1c0,0.6,0.5,1.1,1.1,1.1s1.1-0.5,1.1-1.1C610.4,347.6,609.8,347.1,609.2,347.1z"/>
	</g>
</g>
<g>
	<polygon fill="#FFFFFF" points="627.8,416.6 617.3,416.6 619.7,406.8 625.4,406.8 	"/>
	<path fill="#ED7B27" d="M628.2,417h-11.4l2.6-10.5h6.2L628.2,417z M617.7,416.3h9.7l-2.4-9.1h-5L617.7,416.3z"/>
</g>
<g>
	<g>
		<circle fill="#FFFFFF" cx="624.2" cy="402.2" r="5.7"/>
		<g>
			<path fill="#FFFFFF" d="M629.9,402.2c0-3.2-2.5-5.7-5.7-5.7c-3.2,0-5.7,2.2-5.7,5.7l0,0.6c-0.8,0.1-1.3,0.8-1.3,1.5
				c0,0.4,0.1,0.7,0.3,1c-0.5,0.2-0.9,0.8-0.9,1.4c0,0.9,0.7,1.6,1.6,1.6c0.3,0,0.6-0.1,0.9-0.3c0.3,0.4,0.8,0.7,1.3,0.7
				c0.6,0,1.1-0.3,1.3-0.7h0.4c0.3,0.4,0.8,0.7,1.3,0.7c0.6,0,1.1-0.3,1.3-0.8C627.5,407.7,629.9,405.3,629.9,402.2z M623.3,408.7
				c0.9,0,1.4-0.7,1.4-1.6c0-0.7-0.7-1.5-1.2-1.5l0,0l-0.5-1.5c-0.9,0-1.6-0.7-1.6-1.6c0-0.9,0.7-1.6,1.6-1.6c0,0,0.2-4,3.3-4"/>
			<path fill="#ED7B27" d="M623.3,409.1L623.3,409.1c-0.6,0-1.2-0.2-1.6-0.7c-0.4,0.4-0.9,0.7-1.5,0.7c-0.5,0-1-0.2-1.4-0.6
				c-0.2,0.1-0.5,0.2-0.8,0.2c-1.1,0-2-0.9-2-2c0-0.6,0.3-1.2,0.8-1.6c-0.1-0.3-0.2-0.5-0.2-0.8c0-0.9,0.6-1.6,1.4-1.9l0-0.3
				c0-3.6,2.5-6.1,6.1-6.1c3.4,0,6.1,2.8,6.1,6.1c0,3.2-2.4,5.8-5.5,6.1c0,0.1-0.1,0.1-0.1,0.2C624.3,408.9,623.8,409.1,623.3,409.1
				z M619,407.4l0.2,0.3c0.2,0.3,0.6,0.5,0.9,0.5c0.4,0,0.8-0.2,1-0.5l0.1-0.2h0.8l0.1,0.2c0.2,0.3,0.6,0.5,1,0.5
				c0.3,0,0.6-0.1,0.8-0.3c0.2-0.2,0.3-0.5,0.3-0.8c0-0.5-0.6-1.1-0.8-1.1h-0.3l-0.5-1.5c-0.9-0.2-1.7-1-1.7-1.9
				c0-1,0.7-1.8,1.6-1.9c0.1-1.2,0.7-2.8,2-3.6c-0.1,0-0.3,0-0.4,0c-3.1,0-5.3,2.2-5.3,5.3l0,0l-0.1,0.9l-0.3,0
				c-0.6,0.1-1,0.6-1,1.1c0,0.3,0.1,0.5,0.2,0.7l0.3,0.4l-0.5,0.2c-0.4,0.2-0.7,0.6-0.7,1c0,0.6,0.5,1.1,1.1,1.1
				c0.2,0,0.4-0.1,0.6-0.2L619,407.4z M623.8,405.2c0.7,0.2,1.3,1.1,1.3,1.9c0,0.1,0,0.2,0,0.3c2.5-0.4,4.4-2.6,4.4-5.2
				c0-2.2-1.3-4.1-3.2-4.9c-2.6,0.1-2.8,3.6-2.8,3.6l0,0.4H623c-0.6,0-1.1,0.5-1.1,1.1c0,0.6,0.5,1.1,1.1,1.1h0.3L623.8,405.2z"/>
		</g>
		<circle fill="#ED7B27" cx="626.4" cy="401.4" r="0.8"/>
	</g>
</g>
<g>
	<path fill="#ED7B27" d="M582.5,405.1h-1.9c-0.3,0.3-0.6,0.5-1,0.7h2.2l0.2,9.4h-10l0.2-9.4h2.1c-0.4-0.2-0.7-0.4-1-0.7h-1.8
		l-0.4,10.8h11.6L582.5,405.1z"/>
</g>
<g>
	<path fill="#ED7B27" d="M577.1,407c-3.7,0-6.7-3-6.7-6.7c0-3.7,3-6.7,6.7-6.7c3.7,0,6.7,3,6.7,6.7C583.8,404,580.8,407,577.1,407z
		 M577.1,394.5c-3.2,0-5.8,2.6-5.8,5.8c0,3.2,2.6,5.8,5.8,5.8c3.2,0,5.8-2.6,5.8-5.8C582.9,397.1,580.3,394.5,577.1,394.5z"/>
	<circle fill="#ED7B27" cx="579.5" cy="399.4" r="0.9"/>
</g>
<polygon fill="none" stroke="#ED7B27" stroke-linejoin="round" stroke-miterlimit="10" points="579,406.7 581,406.7 580,407.8 "/>
<polygon fill="none" stroke="#ED7B27" stroke-linejoin="round" stroke-miterlimit="10" points="580,407.6 581.7,412.2 580,413.8 
	578.4,412.2 "/>
<polygon fill="none" stroke="#ED7B27" stroke-linejoin="round" stroke-miterlimit="10" points="577.8,397.9 581.1,397.8 
	581.1,401.1 577.8,401.4 577.8,399.6 "/>
<polyline fill="none" stroke="#ED7B27" stroke-linejoin="round" stroke-miterlimit="10" points="572.5,400.3 574.4,398.5 
	577.1,399.1 577.8,399.6 "/>
<line fill="none" stroke="#ED7B27" stroke-linejoin="round" stroke-miterlimit="10" x1="581.1" y1="398.5" x2="582.5" y2="398.3"/>
<path fill="none" stroke="#ED7B27" stroke-linejoin="round" stroke-miterlimit="10" d="M576.2,396.7c0,0,0.2-0.4,0.6-0.8
	c0.4-0.5,1.9-1.1,1.9-1.1l0.6-0.2"/>
<path fill="none" stroke="#ED7B27" stroke-linejoin="round" stroke-miterlimit="10" d="M574.5,396.4c0,0,0.2-0.4,0.6-0.8
	c0.4-0.3,1.6-1.5,1.6-1.5"/>
<path fill="none" stroke="#ED7B27" stroke-linejoin="round" stroke-miterlimit="10" d="M578.4,396.4c0,0,0.4-0.6,0.7-0.8
	c0.3-0.1,1-0.6,1-0.6"/>
<g>
	<path fill="#ED7B27" d="M589.7,359.4h-1.8c-0.3,0.3-0.6,0.5-0.9,0.7h1.7l-0.6,8.7h-6.9l-0.6-8.7h1.6c-0.3-0.2-0.6-0.4-0.9-0.7h-1.6
		l0.8,10h8.4L589.7,359.4z"/>
</g>
<g>
	<circle fill="#FFFFFF" cx="584.6" cy="355.5" r="5"/>
	<path fill="#ED7B27" d="M579.2,355.5c0-3,2.4-5.4,5.4-5.4c3,0,5.4,2.4,5.4,5.4c0,3-2.4,5.4-5.4,5.4
		C581.6,360.8,579.2,358.4,579.2,355.5z M580,355.5c0,2.6,2.1,4.6,4.6,4.6c2.6,0,4.6-2.1,4.6-4.6c0-2.6-2.1-4.6-4.6-4.6
		C582,350.8,580,352.9,580,355.5z"/>
	<circle fill="#ED7B27" cx="582.6" cy="354.7" r="0.7"/>
	<g>
		<g>
			<path fill="#FFFFFF" d="M587.2,349.4c2.5,1.1,3.7,4.1,2.6,6.6l-9.1-4C581.8,349.4,584.7,348.3,587.2,349.4z"/>
			<path fill="#ED7B27" d="M580.2,352.1l0.1-0.3c0.9-1.9,2.8-3.2,4.9-3.2c0.7,0,1.5,0.2,2.2,0.5c2.7,1.2,3.9,4.4,2.7,7.1l-0.1,0.3
				L580.2,352.1z M581.2,351.8l8.4,3.7c0.8-2.3-0.3-4.8-2.5-5.8c-0.6-0.3-1.2-0.4-1.9-0.4C583.5,349.3,582,350.3,581.2,351.8z"/>
		</g>
		<g>
			<path fill="#FFFFFF" d="M578.8,349.7c1.1,0.5,1.8,1.5,1.5,2.2l-4.1-1.8C576.5,349.4,577.6,349.2,578.8,349.7z"/>
			<path fill="#ED7B27" d="M575.7,350.3l0.1-0.3c0.2-0.5,0.9-0.9,1.6-0.9c0.5,0,1,0.1,1.4,0.3c1.3,0.6,2.1,1.8,1.7,2.7l-0.1,0.3
				L575.7,350.3z M576.8,350l3.2,1.4c-0.1-0.4-0.6-1-1.3-1.3c-0.4-0.2-0.8-0.3-1.1-0.3C577.2,349.8,577,349.9,576.8,350z"/>
		</g>
	</g>
</g>
<g>
	<path fill="#ED7B27" d="M606.9,406H605c-0.3,0.3-0.6,0.5-1,0.7h1.9l-0.7,9.5h-7.5l-0.7-9.5h1.7c-0.4-0.2-0.7-0.5-1-0.7h-1.8l0.9,11
		h9.2L606.9,406z"/>
</g>
<g>
	<g>
		<circle fill="#FFFFFF" cx="600.9" cy="402.1" r="5.2"/>
		<path fill="#ED7B27" d="M595.2,402.1c0-3.1,2.5-5.6,5.6-5.6s5.6,2.5,5.6,5.6c0,3.1-2.5,5.6-5.6,5.6S595.2,405.2,595.2,402.1z
			 M596,402.1c0,2.7,2.2,4.9,4.9,4.9c2.7,0,4.9-2.2,4.9-4.9c0-2.7-2.2-4.9-4.9-4.9C598.2,397.2,596,399.4,596,402.1z"/>
		<circle fill="#ED7B27" cx="598.8" cy="401.3" r="0.7"/>
		<g>
			
				<ellipse transform="matrix(-0.6692 0.7431 -0.7431 -0.6692 1303.6399 217.6168)" fill="#FFFFFF" cx="603.4" cy="399" rx="2.1" ry="5.9"/>
			<path fill="#ED7B27" d="M598.7,394.8c0.2-0.2,0.5-0.4,1.1-0.4c0.7,0,1.7,0.4,2.8,1c-0.2,0.2-0.4,0.4-0.5,0.6
				c-0.9-0.5-1.7-0.8-2.3-0.8c-0.3,0-0.5,0.1-0.6,0.2c-0.3,0.3-0.1,1,0.3,1.8c0.5,1,1.5,2.1,2.6,3.1c2,1.8,3.8,2.6,4.7,2.6
				c0.3,0,0.5-0.1,0.6-0.2c0.3-0.3,0.1-1-0.3-1.8c-0.2-0.3-0.4-0.6-0.6-1c0.2-0.2,0.4-0.4,0.5-0.6c0.3,0.4,0.6,0.8,0.8,1.2
				c0.8,1.5,0.6,2.3,0.2,2.7c-0.2,0.2-0.5,0.4-1.1,0.4c0,0,0,0,0,0c-1.3,0-3.4-1.1-5.2-2.8c-1.2-1.1-2.2-2.3-2.8-3.4
				C598.1,396,598.4,395.2,598.7,394.8z"/>
		</g>
	</g>
	<g>
		<path fill="#ED7B27" d="M605.3,394.5c0.1,0.1,0.2,0.1,0.3,0.2c0.7,0.7,1.3,1.5,2,2.2c0.2,0.2,0.1,0.3,0,0.5
			c-0.8,0.9-1.5,1.9-2.3,2.8c-0.2,0.2-0.3,0.4-0.1,0.7c0.3,0.2,0.5,0,0.7-0.2c0.9-1.1,1.8-2.2,2.7-3.3c0.2-0.2,0.2-0.4,0-0.6
			c-0.9-1-1.9-2-2.8-3.1c-0.2-0.2-0.3-0.2-0.6-0.1c-1.3,0.8-2.6,1.6-3.8,2.4c-0.2,0.1-0.5,0.3-0.3,0.6c0.2,0.3,0.5,0.2,0.7,0
			c1.1-0.7,2.2-1.3,3.2-2C605.1,394.6,605.2,394.6,605.3,394.5z"/>
	</g>
</g>
</svg>
