<?xml version="1.0" encoding="utf-8"?>
<!-- Generator: Adobe Illustrator 18.1.1, SVG Export Plug-In . SVG Version: 6.00 Build 0)  -->
<!DOCTYPE svg PUBLIC "-//W3C//DTD SVG 1.1//EN" "http://www.w3.org/Graphics/SVG/1.1/DTD/svg11.dtd">
<svg version="1.1" id="Layer_1" xmlns="http://www.w3.org/2000/svg" xmlns:xlink="http://www.w3.org/1999/xlink" x="0px" y="0px"
	 viewBox="537.3 323 126 126" enable-background="new 537.3 323 126 126" xml:space="preserve">
<circle fill="none" stroke="#F07E2F" stroke-miterlimit="10" cx="600.3" cy="386" r="60.8"/>
<path fill="none" stroke="#EB7C28" stroke-linecap="round" stroke-miterlimit="10" d="M668.6,369.9"/>
<g id="_x38_yb99e.tif_12_">
	<g>
		<g>
			<path fill="#EB7C28" d="M600.3,357.1L600.3,357.1c0.4,0,0.7,0,1.1,0c2,0.1,3.5,0.4,4.9,0.9c2.6,0.9,4.6,2,6.4,3.7
				c2.2,2.1,3.7,4.5,4.7,7.3c0.3,1,0.6,2.1,0.7,3.3c0.1,1.2,0.1,2.3,0,3.4c-0.2,2-0.7,3.7-1.5,5.2c-0.3,0.6-0.6,1.2-0.9,1.7
				c-0.6,1.1-1.1,2.2-1.7,3.1l0,0l0,0c-1,1.6-2,3.3-3.2,5c-2.3,3.4-4.2,6.5-5.9,9.6c-1.7,3-3.1,6-4.3,9.2c-0.7-1.9-1.5-3.8-2.4-5.7
				c-1.3-2.6-2.8-5.5-4.6-8.5l-2.9-4.5l-2.1-3.2l0,0l0,0c-0.8-1.1-1.4-2.3-2.1-3.6c-0.3-0.5-0.6-1-0.9-1.6c-0.8-1.3-1.4-2.7-1.9-4.3
				c-0.2-1.1-0.5-2.1-0.5-3v0l0,0c-0.1-2.4,0.2-4.6,1-7c0.5-1.4,1.3-2.8,2.3-4.2c1.5-2.1,3.5-3.8,5.7-4.9c1.6-0.8,3.3-1.4,5.2-1.8
				C598.5,357.2,599.4,357.1,600.3,357.1 M600.7,381.9c5,0,9.1-4,9.1-9c0-5.1-4.1-9.2-9.1-9.2c-5,0-9.1,4.1-9.1,9.1
				S595.7,381.9,600.7,381.9 M600.3,355.1c-1.1,0-2.2,0.1-3.3,0.3c-1.9,0.4-3.9,1-5.7,1.9c-2.6,1.3-4.8,3.2-6.5,5.6
				c-1,1.4-1.9,3-2.6,4.7c-0.9,2.6-1.3,5-1.2,7.8c0,1.2,0.3,2.3,0.5,3.5c0.5,1.7,1.2,3.2,2.1,4.8c1,1.8,1.9,3.6,3.1,5.3
				c1.7,2.6,3.4,5.2,5,7.8c1.7,2.7,3.1,5.4,4.5,8.3c1.8,3.6,3.1,7.4,4.2,11.3c0.4-1.4,0.8-2.6,1.3-4c1.3-3.8,2.8-7.2,4.8-10.7
				c1.8-3.2,3.8-6.3,5.8-9.4c1.2-1.7,2.2-3.4,3.2-5c1-1.6,1.8-3.4,2.7-5c0.9-1.8,1.4-3.8,1.7-5.8c0.1-1.3,0.1-2.6,0-3.9
				c-0.1-1.3-0.4-2.6-0.8-3.8c-1-3.1-2.7-5.8-5.2-8.2c-2.1-1.9-4.4-3.2-7.1-4.1c-1.8-0.6-3.6-0.9-5.4-1
				C601.1,355.2,600.7,355.1,600.3,355.1L600.3,355.1z M600.7,379.9c-3.9,0-7.1-3.1-7.1-7.1c0-4.1,3.4-7.1,7.1-7.1
				c3.9,0,7.1,3.2,7.1,7.2C607.8,376.8,604.6,379.9,600.7,379.9L600.7,379.9z M600.5,416.3c0,0,0,0.1,0,0.1c0.1,0.3,0.1,0.3,0.1,0.3
				C600.6,416.5,600.5,416.4,600.5,416.3L600.5,416.3z"/>
		</g>
		<path fill="none" stroke="#EB7C28" stroke-width="2" stroke-linecap="round" stroke-miterlimit="10" d="M600.7,365.7
			c3.9,0,7.1,3.1,7.1,7.1c0,4-3.2,7-7.1,7c-3.9,0-7.1-3.1-7.1-7.1S596.8,365.7,600.7,365.7z"/>
	</g>
</g>
</svg>
