<?xml version="1.0" encoding="utf-8"?>
<!-- Generator: Adobe Illustrator 18.1.1, SVG Export Plug-In . SVG Version: 6.00 Build 0)  -->
<!DOCTYPE svg PUBLIC "-//W3C//DTD SVG 1.1//EN" "http://www.w3.org/Graphics/SVG/1.1/DTD/svg11.dtd">
<svg version="1.1" id="Layer_1" xmlns="http://www.w3.org/2000/svg" xmlns:xlink="http://www.w3.org/1999/xlink" x="0px" y="0px"
	 viewBox="537.3 323 126 126" enable-background="new 537.3 323 126 126" xml:space="preserve">
<circle fill="none" stroke="#F07E2F" stroke-miterlimit="10" cx="600.3" cy="385.9" r="60.4"/>
<g>
	<polygon fill="#FFFFFF" points="613.2,413.6 587.5,413.6 593.5,389.6 607.2,389.6 	"/>
	<path fill="#ED7B27" d="M614.2,414.4h-27.6l6.2-25.7h15.2L614.2,414.4z M588.5,412.7h23.7l-5.7-22.3h-12.2L588.5,412.7z"/>
</g>
<g>
	<path fill="#ED7B27" d="M643.6,388.7h-4.4c-0.7,0.6-1.4,1.2-2.3,1.7h5.2l0.5,21.8h-23.3l0.5-21.8h5c-0.8-0.5-1.6-1-2.3-1.7h-4.1
		l-1,25.2h27.1L643.6,388.7z"/>
</g>
<g>
	<path fill="#ED7B27" d="M585.3,388.7h-4.4c-0.7,0.6-1.4,1.2-2.3,1.7h4.2l-1.5,21.8h-17.3l-1.5-21.8h4c-0.8-0.5-1.6-1-2.3-1.7h-4.1
		l2,25.2h21.1L585.3,388.7z"/>
</g>
<g>
	<path fill="#ED7B27" d="M631,393.1c-8.6,0-15.6-7-15.6-15.6c0-8.6,7-15.6,15.6-15.6c8.6,0,15.6,7,15.6,15.6
		C646.5,386.1,639.6,393.1,631,393.1z M631,364.2c-7.4,0-13.4,6-13.4,13.4c0,7.4,6,13.4,13.4,13.4c7.4,0,13.4-6,13.4-13.4
		C644.4,370.2,638.4,364.2,631,364.2z"/>
	<circle fill="#ED7B27" cx="636.7" cy="375.5" r="2.1"/>
</g>
<g>
	<g>
		<circle fill="#FFFFFF" cx="605.3" cy="377.8" r="13.8"/>
		<g>
			<path fill="#FFFFFF" d="M619.2,377.9c0-7.7-6.2-13.9-13.9-13.9c-7.7,0-13.9,5.3-13.9,13.9l-0.1,1.4c-1.9,0.2-3.3,1.8-3.3,3.8
				c0,0.9,0.3,1.7,0.8,2.3c-1.3,0.6-2.2,1.9-2.2,3.5c0,2.1,1.7,3.8,3.8,3.8c0.8,0,1.5-0.2,2.1-0.6c0.7,1,1.8,1.7,3.1,1.7
				c1.4,0,2.6-0.7,3.2-1.8h0.9c0.7,1.1,1.9,1.8,3.2,1.8c1.4,0,2.6-0.7,3.2-1.8C613.4,391.3,619.2,385.3,619.2,377.9z M603.1,393.6
				c2.1,0,3.4-1.7,3.4-3.8c0-1.7-1.7-3.7-3-3.7l0,0l-1.1-3.7c-2.1,0-3.8-1.7-3.8-3.8c0-2.1,1.7-3.8,3.8-3.8c0,0,0.5-9.9,8.1-9.9"/>
			<path fill="#ED7B27" d="M603.1,394.6L603.1,394.6c-1.5,0.1-2.9-0.6-3.9-1.7c-0.9,1.1-2.2,1.7-3.7,1.7c-1.3,0-2.5-0.5-3.4-1.4
				c-0.6,0.2-1.2,0.4-1.9,0.4c-2.7,0-4.8-2.2-4.8-4.8c0-1.5,0.7-2.9,1.9-3.8c-0.3-0.6-0.4-1.3-0.4-2c0-2.1,1.4-4,3.3-4.6l0-0.6
				c0-8.8,6.2-14.9,15-14.9c8.2,0,15,6.7,15,15c0,7.7-5.9,14.2-13.5,14.9c-0.1,0.1-0.2,0.3-0.4,0.4
				C605.5,394.1,604.4,394.6,603.1,394.6z M592.7,390.5l0.6,0.8c0.5,0.8,1.4,1.2,2.3,1.2c1,0,1.8-0.5,2.4-1.3l0.3-0.5h2l0.3,0.5
				c0.5,0.8,1.4,1.3,2.4,1.3c0.7,0,1.4-0.3,1.9-0.8c0.4-0.5,0.6-1.2,0.6-2c0-1.3-1.4-2.7-1.9-2.7h-0.8l-1.2-3.8
				c-2.3-0.4-4-2.4-4-4.7c0-2.3,1.7-4.3,3.9-4.7c0.4-2.9,1.7-6.9,4.9-8.9c-0.3,0-0.7,0-1.1,0c-7.6,0-12.9,5.3-12.9,12.9l0,0.1
				l-0.2,2.2l-0.8,0.1c-1.4,0.2-2.4,1.4-2.4,2.7c0,0.6,0.2,1.2,0.6,1.7l0.8,1l-1.2,0.5c-1,0.4-1.6,1.4-1.6,2.5
				c0,1.5,1.2,2.8,2.8,2.8c0.6,0,1.1-0.2,1.5-0.5L592.7,390.5z M604.3,385.2c1.7,0.6,3.2,2.7,3.2,4.6c0,0.3,0,0.5,0,0.8
				c6.1-1,10.7-6.4,10.7-12.7c0-5.3-3.3-9.9-7.9-11.9c-6.3,0.2-6.9,8.8-6.9,8.9l-0.1,1h-1c-1.5,0-2.7,1.2-2.7,2.7
				c0,1.5,1.2,2.7,2.7,2.7h0.8L604.3,385.2z"/>
		</g>
		<circle fill="#ED7B27" cx="610.7" cy="375.8" r="2"/>
	</g>
	<g>
		
			<ellipse transform="matrix(0.6692 0.7431 -0.7431 0.6692 470.3748 -320.3293)" fill="#FFFFFF" cx="595" cy="368.1" rx="5.7" ry="15.7"/>
		<path fill="#ED7B27" d="M585.6,380.5C585.6,380.5,585.6,380.5,585.6,380.5c-1.6,0-2.5-0.6-3-1.2c-0.9-1-1.6-3.1,0.6-7.2
			c1.5-2.9,4.1-6,7.3-8.9c5-4.5,10.4-7.3,13.9-7.3c1.6,0,2.5,0.6,3,1.2c0.9,1,1.6,3.1-0.6,7.2c-1.5,2.9-4.1,6-7.3,8.9
			C594.5,377.6,589.1,380.5,585.6,380.5z M604.3,357.9c-2.4,0-7.3,2.1-12.5,6.8c-3,2.7-5.5,5.7-6.9,8.4c-1.2,2.3-1.5,4.1-0.9,4.9
			c0.3,0.3,0.8,0.5,1.5,0.5c2.4,0,7.3-2.1,12.5-6.8c3-2.7,5.5-5.7,6.9-8.4c1.2-2.3,1.5-4.1,0.9-4.9C605.5,358,605,357.9,604.3,357.9
			z"/>
	</g>
	<g>
		<circle fill="#FFFFFF" cx="590.1" cy="363.9" r="3.8"/>
		<path fill="#ED7B27" d="M590.1,368.7c-2.7,0-4.8-2.2-4.8-4.8c0-2.7,2.2-4.8,4.8-4.8c2.7,0,4.8,2.2,4.8,4.8
			C594.9,366.5,592.8,368.7,590.1,368.7z M590.1,361.1c-1.5,0-2.8,1.2-2.8,2.8c0,1.5,1.2,2.8,2.8,2.8c1.5,0,2.8-1.2,2.8-2.8
			C592.9,362.3,591.6,361.1,590.1,361.1z"/>
	</g>
</g>
<polygon fill="none" stroke="#ED7B27" stroke-linejoin="round" stroke-miterlimit="10" points="635.4,392.5 640,392.5 637.7,395.1 
	"/>
<polygon fill="none" stroke="#ED7B27" stroke-linejoin="round" stroke-miterlimit="10" points="637.7,394.6 641.6,405.3 
	637.7,409.1 634,405.3 "/>
<polygon fill="none" stroke="#ED7B27" stroke-linejoin="round" stroke-miterlimit="10" points="632.5,372 640.3,371.6 640.3,379.5 
	632.5,380.2 632.5,375.9 "/>
<polyline fill="none" stroke="#ED7B27" stroke-linejoin="round" stroke-miterlimit="10" points="620.2,377.6 624.6,373.4 631,374.7 
	632.5,375.9 "/>
<line fill="none" stroke="#ED7B27" stroke-linejoin="round" stroke-miterlimit="10" x1="640.3" y1="373.4" x2="643.6" y2="373"/>
<path fill="none" stroke="#ED7B27" stroke-linejoin="round" stroke-miterlimit="10" d="M628.8,369.1c0,0,0.4-0.9,1.4-2
	s4.4-2.5,4.4-2.5l1.5-0.5"/>
<path fill="none" stroke="#ED7B27" stroke-linejoin="round" stroke-miterlimit="10" d="M624.9,368.4c0,0,0.5-1,1.4-1.8
	s3.8-3.4,3.8-3.4"/>
<path fill="none" stroke="#ED7B27" stroke-linejoin="round" stroke-miterlimit="10" d="M634,368.4c0,0,0.9-1.5,1.5-1.8
	c0.6-0.3,2.4-1.4,2.4-1.4"/>
<g>
	<circle fill="#FFFFFF" cx="572.5" cy="378.8" r="12.6"/>
	<path fill="#ED7B27" d="M559,378.8c0-7.4,6-13.5,13.5-13.5c7.4,0,13.5,6,13.5,13.5c0,7.4-6,13.5-13.5,13.5
		C565,392.3,559,386.2,559,378.8z M560.8,378.8c0,6.4,5.2,11.6,11.6,11.6c6.4,0,11.6-5.2,11.6-11.6c0-6.4-5.2-11.6-11.6-11.6
		C566,367.2,560.8,372.4,560.8,378.8z"/>
	<circle fill="#ED7B27" cx="567.5" cy="377" r="1.8"/>
	<g>
		<g>
			<path fill="#FFFFFF" d="M579.1,363.5c6.3,2.8,9.2,10.2,6.4,16.5l-23-10.1C565.4,363.6,572.8,360.7,579.1,363.5z"/>
			<path fill="#ED7B27" d="M561.4,370.4l0.4-0.8c2.2-4.9,7-8,12.3-8c1.9,0,3.7,0.4,5.4,1.2c6.8,3,9.9,11,6.9,17.8l-0.4,0.9
				L561.4,370.4z M563.9,369.5l21.2,9.4c2-5.7-0.7-12-6.3-14.5c-1.5-0.7-3.1-1-4.7-1C569.8,363.4,565.9,365.8,563.9,369.5z"/>
		</g>
		<g>
			<path fill="#FFFFFF" d="M557.9,364.4c2.8,1.3,4.5,3.7,3.7,5.4l-10.3-4.5C552.1,363.5,555,363.1,557.9,364.4z"/>
			<path fill="#ED7B27" d="M550.1,365.8l0.4-0.8c0.6-1.4,2.2-2.2,4.1-2.2c1.2,0,2.4,0.3,3.6,0.8c3.4,1.5,5.2,4.4,4.2,6.7l-0.4,0.9
				L550.1,365.8z M552.9,365l7.9,3.5c-0.3-1.1-1.4-2.4-3.3-3.2c-1-0.4-2-0.7-2.9-0.7C553.9,364.6,553.3,364.7,552.9,365z"/>
		</g>
	</g>
</g>
</svg>
